<svg width="21" height="20" viewBox="0 0 21 20" fill="none" xmlns="http://www.w3.org/2000/svg">
<path d="M20.4588 8.79573L16.24 12.2497L17.5253 17.4151C17.5962 17.6955 17.578 17.9896 17.4729 18.2601C17.3677 18.5307 17.1804 18.7656 16.9346 18.9352C16.6889 19.1049 16.3956 19.2016 16.0919 19.2131C15.7883 19.2247 15.4878 19.1506 15.2285 19.0002L10.4941 16.2356L5.7569 19.0002C5.49761 19.1497 5.19749 19.2231 4.89434 19.2111C4.59118 19.1991 4.29854 19.1023 4.05327 18.9328C3.808 18.7634 3.62106 18.5288 3.51599 18.2588C3.41093 17.9887 3.39243 17.6951 3.46283 17.4151L4.75283 12.2497L0.534082 8.79573C0.304674 8.60761 0.138762 8.35953 0.0570658 8.08247C-0.0246303 7.80542 -0.0184894 7.51166 0.0747213 7.2379C0.167932 6.96413 0.344082 6.72249 0.581172 6.54315C0.818262 6.3638 1.10578 6.25471 1.40783 6.22949L6.93908 5.80608L9.07283 0.906638C9.18833 0.639622 9.3849 0.411223 9.63755 0.250479C9.89021 0.0897344 10.1875 0.00390625 10.4917 0.00390625C10.7959 0.00390625 11.0933 0.0897344 11.3459 0.250479C11.5986 0.411223 11.7951 0.639622 11.9106 0.906638L14.0435 5.80608L19.5747 6.22949C19.8774 6.25377 20.1657 6.36226 20.4037 6.54135C20.6416 6.72045 20.8186 6.96219 20.9124 7.23628C21.0062 7.51038 21.0126 7.80464 20.9309 8.08221C20.8492 8.35977 20.683 8.60828 20.4531 8.79662L20.4588 8.79573Z" fill="#FF9900"/>
</svg>
