<svg width="173" height="320" viewBox="0 0 173 320" fill="none" xmlns="http://www.w3.org/2000/svg">
<g clip-path="url(#clip0_2096_5351)">
<path d="M100.21 128.54C100.21 128.54 85.68 134.42 80.54 134.71C74.79 135.04 62.83 132.56 54.58 129.53C50.02 127.86 43.15 127.8 42.39 124.6C41.82 122.19 44.03 118.24 46.51 118.2C48.99 118.16 56.55 122.43 56.55 122.43C56.55 122.43 71.81 125.79 76.93 125.29C81.03 124.89 92.5 119.91 92.5 119.91L100.2 128.54H100.21Z" fill="#F49F75"/>
<path d="M123.14 103.74L123.87 87.66C123.87 87.66 118.78 88.03 117.6 86.99C111.18 81.32 117.82 68.63 117.82 68.63L127.57 63.46C128.2 63.13 128.97 63.46 129.14 64.16L130.34 68.86C131.42 73.1 135.18 76.12 139.55 76.25L139.44 80.04C139.36 82.78 138.19 85.37 136.19 87.23L137.53 105.55L130.79 95.25L123.15 103.76L123.14 103.74Z" fill="#F49F75"/>
<path d="M117.82 68.62C117.82 68.62 125.06 71.9 130.77 71.75C132.56 78.31 129.28 75.63 135.94 86.96C136.81 88.43 146.08 78.91 140.91 65.88C140.18 64.05 137.32 64.07 136.83 63.89C134.56 63.06 132.18 61.49 129.77 61.7C113.46 61.45 117.81 68.61 117.81 68.61L117.82 68.62Z" fill="#252F45"/>
<path d="M118.97 97.19L125.86 95.14L136.67 95.65L139.56 97.87L126.29 113.02L118.97 97.19Z" fill="#F49F75"/>
<path d="M104.54 175.65L155.48 176.29L151.91 126.38L154.97 132.85L165.18 123.66C165.18 123.66 161.44 106.64 147.14 101.19C145.04 100.39 138.97 97.45 138.97 97.45L135.72 99.29C131 101.97 125.03 100.9 121.54 96.74L121.27 96.42C121.27 96.42 109.29 98.37 105.95 100.51C100.8 103.79 90.2899 119.23 90.2899 119.23C90.2899 119.23 97.8299 130.11 101.18 128.76C115.99 122.8 105.95 118.21 105.95 118.21L104.55 175.66L104.54 175.65Z" fill="#A0B9E1"/>
<path d="M106.12 100.33C100.97 103.61 90.4599 119.05 90.4599 119.05C90.4599 119.05 100.47 132.01 101.5 128.54C103.84 127.35 103.18 127.82 105.78 126.58C105.1 114.37 103.82 108.24 106.12 100.32V100.33Z" fill="#B4C5DD"/>
<path d="M100.073 130.116L88.5896 121.084C88.455 120.978 88.4318 120.783 88.5376 120.648L89.6938 119.178C89.7996 119.044 89.9945 119.021 90.1291 119.126L101.612 128.159C101.747 128.265 101.77 128.46 101.664 128.595L100.508 130.064C100.402 130.199 100.207 130.222 100.073 130.116Z" fill="#262626"/>
<path d="M165.01 126.21C165.01 126.21 171.11 140.65 171.48 145.78C171.89 151.53 169.59 163.52 166.69 171.82C165.09 176.41 165.13 183.28 161.94 184.08C159.54 184.69 155.55 182.54 155.48 180.06C155.41 177.58 159.56 169.95 159.56 169.95C159.56 169.95 162.69 154.64 162.11 149.52C161.65 145.43 156.49 134.03 156.49 134.03L165 126.2L165.01 126.21Z" fill="#F49F75"/>
<path d="M50.9792 133.872L50.9694 133.874C49.4923 134.148 48.073 133.172 47.7992 131.695L34.1498 58.0496C33.876 56.5725 34.8515 55.1532 36.3286 54.8794L36.3384 54.8776C37.8155 54.6038 39.2348 55.5793 39.5085 57.0564L53.158 130.702C53.4317 132.179 52.4563 133.599 50.9792 133.872Z" fill="#262626"/>
<path d="M124.73 304.95L127.19 318.31L94.5199 319.22L113.57 304.79L124.73 304.95Z" fill="#76574E"/>
<path d="M169.66 305.29L172.13 318.65L139.45 319.57L158.51 305.13L169.66 305.29Z" fill="#76574E"/>
<path d="M35.7099 71.42C15.9878 71.42 -8.39233e-05 55.4321 -8.39233e-05 35.71C-8.39233e-05 15.9879 15.9878 0 35.7099 0C55.432 0 71.4199 15.9879 71.4199 35.71C71.4199 55.4321 55.432 71.42 35.7099 71.42Z" fill="#4A6EB4"/>
<path d="M35.7098 67.33C18.2466 67.33 4.08984 53.1732 4.08984 35.71C4.08984 18.2468 18.2466 4.09 35.7098 4.09C53.1731 4.09 67.3298 18.2468 67.3298 35.71C67.3298 53.1732 53.1731 67.33 35.7098 67.33Z" fill="#FEFEFE"/>
<path d="M38.0299 58.12C35.771 58.12 33.9399 56.2888 33.9399 54.03C33.9399 51.7712 35.771 49.94 38.0299 49.94C40.2887 49.94 42.1199 51.7712 42.1199 54.03C42.1199 56.2888 40.2887 58.12 38.0299 58.12Z" fill="#3668B1"/>
<path d="M34.7347 15.6307L38.5287 41.2311C38.749 42.7171 37.7229 44.1002 36.2369 44.3205L36.227 44.3219C34.741 44.5422 33.3578 43.5161 33.1376 42.0301L29.3436 16.4297C29.1234 14.9437 30.1495 13.5605 31.6354 13.3403L31.6453 13.3389C33.1313 13.1186 34.5145 14.1447 34.7347 15.6307Z" fill="#3668B1"/>
<path d="M166.926 124.848L156.187 134.754C156.061 134.87 155.865 134.862 155.749 134.736L154.481 133.362C154.365 133.236 154.373 133.04 154.499 132.923L165.237 123.017C165.363 122.901 165.559 122.909 165.675 123.035L166.943 124.41C167.059 124.535 167.052 124.732 166.926 124.848Z" fill="#262626"/>
<path d="M144.3 67.35C138.86 65.86 124.27 62.01 118.28 60.24C120.07 53.68 127.35 49.95 134.54 51.91C141.73 53.87 146.1 60.78 144.3 67.35Z" fill="#FFCC07"/>
<path d="M142.302 73.9102L116.661 66.9054C115.542 66.5997 114.883 65.445 115.189 64.3262L115.89 61.7602C116.196 60.6414 117.35 59.9822 118.469 60.2879L144.11 67.2927C145.228 67.5983 145.887 68.7531 145.582 69.8719L144.881 72.4378C144.575 73.5566 143.42 74.2158 142.302 73.9102Z" fill="#FFCC07"/>
<path d="M152.24 133.02C152.24 133.02 157.32 160.88 158.13 170.56C160.34 196.93 170.96 305.1 170.96 305.1H156.66L135.64 207.31L125.26 305.1L109.86 305.61C109.86 305.61 102.74 196.84 102.89 170.33C102.95 160.41 105.69 132.59 105.69 132.59L110.88 119.91L107.27 100.2C107.2 99.8 107.45 99.41 107.85 99.32L111.4 98.47L115.49 119.32L138.06 118.8L145.71 100.34L148.98 101.7C149.42 101.88 149.62 102.4 149.41 102.83L141.31 119.71L152.26 133.02H152.24Z" fill="#5579BB"/>
<path d="M135.27 147.23H118.42C115.763 147.23 113.61 145.076 113.61 142.42V131.99C113.61 129.334 115.763 127.18 118.42 127.18H135.27C137.926 127.18 140.08 129.334 140.08 131.99V142.42C140.08 145.076 137.926 147.23 135.27 147.23Z" fill="#A0B9E1"/>
</g>
<defs>
<clipPath id="clip0_2096_5351">
<rect width="172.13" height="319.57" fill="white" transform="matrix(-1 0 0 1 172.13 0)"/>
</clipPath>
</defs>
</svg>
