<svg width="153" height="20" viewBox="0 0 153 20" fill="none" xmlns="http://www.w3.org/2000/svg">
<path d="M152.459 9.5345L148.24 12.9885L149.525 18.1539C149.596 18.4343 149.578 18.7283 149.473 18.9989C149.368 19.2695 149.18 19.5044 148.935 19.674C148.689 19.8436 148.396 19.9403 148.092 19.9519C147.788 19.9635 147.488 19.8894 147.228 19.739L142.494 16.9744L137.757 19.739C137.498 19.8885 137.197 19.9619 136.894 19.9499C136.591 19.9379 136.299 19.8411 136.053 19.6716C135.808 19.5021 135.621 19.2676 135.516 18.9975C135.411 18.7274 135.392 18.4339 135.463 18.1539L136.753 12.9885L132.534 9.5345C132.305 9.34638 132.139 9.0983 132.057 8.82124C131.975 8.54418 131.982 8.25043 132.075 7.97667C132.168 7.7029 132.344 7.46126 132.581 7.28192C132.818 7.10257 133.106 6.99348 133.408 6.96825L138.939 6.54485L141.073 1.64541C141.188 1.37839 141.385 1.14999 141.638 0.989248C141.89 0.828504 142.188 0.742676 142.492 0.742676C142.796 0.742676 143.093 0.828504 143.346 0.989248C143.599 1.14999 143.795 1.37839 143.911 1.64541L146.043 6.54485L151.575 6.96825C151.877 6.99254 152.166 7.10103 152.404 7.28012C152.642 7.45922 152.819 7.70096 152.912 7.97505C153.006 8.24915 153.013 8.54341 152.931 8.82098C152.849 9.09854 152.683 9.34705 152.453 9.53539L152.459 9.5345Z" fill="#9EBDFF"/>
<path d="M20.4588 9.5345L16.24 12.9885L17.5253 18.1539C17.5962 18.4343 17.578 18.7283 17.4729 18.9989C17.3677 19.2695 17.1804 19.5044 16.9346 19.674C16.6889 19.8436 16.3956 19.9403 16.0919 19.9519C15.7883 19.9635 15.4878 19.8894 15.2285 19.739L10.4941 16.9744L5.7569 19.739C5.49761 19.8885 5.19749 19.9619 4.89434 19.9499C4.59118 19.9379 4.29854 19.8411 4.05327 19.6716C3.808 19.5021 3.62106 19.2676 3.51599 18.9975C3.41093 18.7274 3.39243 18.4339 3.46283 18.1539L4.75283 12.9885L0.534082 9.5345C0.304674 9.34638 0.138762 9.0983 0.0570658 8.82124C-0.0246303 8.54418 -0.0184894 8.25043 0.0747213 7.97667C0.167932 7.7029 0.344082 7.46126 0.581172 7.28192C0.818262 7.10257 1.10578 6.99348 1.40783 6.96825L6.93908 6.54485L9.07283 1.64541C9.18833 1.37839 9.3849 1.14999 9.63755 0.989248C9.89021 0.828504 10.1875 0.742676 10.4917 0.742676C10.7959 0.742676 11.0933 0.828504 11.3459 0.989248C11.5986 1.14999 11.7951 1.37839 11.9106 1.64541L14.0435 6.54485L19.5747 6.96825C19.8774 6.99254 20.1657 7.10103 20.4037 7.28012C20.6416 7.45922 20.8186 7.70096 20.9124 7.97505C21.0062 8.24915 21.0126 8.54341 20.9309 8.82098C20.8492 9.09854 20.683 9.34705 20.4531 9.53539L20.4588 9.5345Z" fill="#FF9900"/>
<path d="M53.4588 9.5345L49.24 12.9885L50.5253 18.1539C50.5962 18.4343 50.578 18.7283 50.4729 18.9989C50.3677 19.2695 50.1804 19.5044 49.9346 19.674C49.6889 19.8436 49.3956 19.9403 49.0919 19.9519C48.7883 19.9635 48.4878 19.8894 48.2285 19.739L43.4941 16.9744L38.7569 19.739C38.4976 19.8885 38.1975 19.9619 37.8943 19.9499C37.5912 19.9379 37.2985 19.8411 37.0533 19.6716C36.808 19.5021 36.6211 19.2676 36.516 18.9975C36.4109 18.7274 36.3924 18.4339 36.4628 18.1539L37.7528 12.9885L33.5341 9.5345C33.3047 9.34638 33.1388 9.0983 33.0571 8.82124C32.9754 8.54418 32.9815 8.25043 33.0747 7.97667C33.1679 7.7029 33.3441 7.46126 33.5812 7.28192C33.8183 7.10257 34.1058 6.99348 34.4078 6.96825L39.9391 6.54485L42.0728 1.64541C42.1883 1.37839 42.3849 1.14999 42.6376 0.989248C42.8902 0.828504 43.1875 0.742676 43.4917 0.742676C43.7959 0.742676 44.0933 0.828504 44.3459 0.989248C44.5986 1.14999 44.7951 1.37839 44.9106 1.64541L47.0435 6.54485L52.5747 6.96825C52.8774 6.99254 53.1657 7.10103 53.4037 7.28012C53.6416 7.45922 53.8186 7.70096 53.9124 7.97505C54.0062 8.24915 54.0126 8.54341 53.9309 8.82098C53.8492 9.09854 53.683 9.34705 53.4531 9.53539L53.4588 9.5345Z" fill="#FF9900"/>
<path d="M86.4588 9.5345L82.24 12.9885L83.5253 18.1539C83.5962 18.4343 83.578 18.7283 83.4729 18.9989C83.3677 19.2695 83.1804 19.5044 82.9346 19.674C82.6889 19.8436 82.3956 19.9403 82.0919 19.9519C81.7883 19.9635 81.4878 19.8894 81.2285 19.739L76.4941 16.9744L71.7569 19.739C71.4976 19.8885 71.1975 19.9619 70.8943 19.9499C70.5912 19.9379 70.2985 19.8411 70.0533 19.6716C69.808 19.5021 69.6211 19.2676 69.516 18.9975C69.4109 18.7274 69.3924 18.4339 69.4628 18.1539L70.7528 12.9885L66.5341 9.5345C66.3047 9.34638 66.1388 9.0983 66.0571 8.82124C65.9754 8.54418 65.9815 8.25043 66.0747 7.97667C66.1679 7.7029 66.3441 7.46126 66.5812 7.28192C66.8183 7.10257 67.1058 6.99348 67.4078 6.96825L72.9391 6.54485L75.0728 1.64541C75.1883 1.37839 75.3849 1.14999 75.6376 0.989248C75.8902 0.828504 76.1875 0.742676 76.4917 0.742676C76.7959 0.742676 77.0933 0.828504 77.3459 0.989248C77.5986 1.14999 77.7951 1.37839 77.9106 1.64541L80.0435 6.54485L85.5747 6.96825C85.8774 6.99254 86.1657 7.10103 86.4037 7.28012C86.6416 7.45922 86.8186 7.70096 86.9124 7.97505C87.0062 8.24915 87.0126 8.54341 86.9309 8.82098C86.8492 9.09854 86.683 9.34705 86.4531 9.53539L86.4588 9.5345Z" fill="#FF9900"/>
<path d="M119.459 9.5345L115.24 12.9885L116.525 18.1539C116.596 18.4343 116.578 18.7283 116.473 18.9989C116.368 19.2695 116.18 19.5044 115.935 19.674C115.689 19.8436 115.396 19.9403 115.092 19.9519C114.788 19.9635 114.488 19.8894 114.228 19.739L109.494 16.9744L104.757 19.739C104.498 19.8885 104.197 19.9619 103.894 19.9499C103.591 19.9379 103.299 19.8411 103.053 19.6716C102.808 19.5021 102.621 19.2676 102.516 18.9975C102.411 18.7274 102.392 18.4339 102.463 18.1539L103.753 12.9885L99.5341 9.5345C99.3047 9.34638 99.1388 9.0983 99.0571 8.82124C98.9754 8.54418 98.9815 8.25043 99.0747 7.97667C99.1679 7.7029 99.3441 7.46126 99.5812 7.28192C99.8183 7.10257 100.106 6.99348 100.408 6.96825L105.939 6.54485L108.073 1.64541C108.188 1.37839 108.385 1.14999 108.638 0.989248C108.89 0.828504 109.188 0.742676 109.492 0.742676C109.796 0.742676 110.093 0.828504 110.346 0.989248C110.599 1.14999 110.795 1.37839 110.911 1.64541L113.043 6.54485L118.575 6.96825C118.877 6.99254 119.166 7.10103 119.404 7.28012C119.642 7.45922 119.819 7.70096 119.912 7.97505C120.006 8.24915 120.013 8.54341 119.931 8.82098C119.849 9.09854 119.683 9.34705 119.453 9.53539L119.459 9.5345Z" fill="#FF9900"/>
</svg>
