<?xml version="1.0" encoding="UTF-8"?>
<svg id="Laag_2" data-name="Laag 2" xmlns="http://www.w3.org/2000/svg" viewBox="0 0 79.7 36.11">
  <defs>
    <style>
      .cls-1 {
        fill: #67e600;
      }

      .cls-1, .cls-2 {
        stroke-width: 0px;
      }

      .cls-2 {
        fill: #fdfdfd;
      }
    </style>
  </defs>
  <g id="Laag_2-2" data-name="Laag 2">
    <path class="cls-1" d="M2.38,0l67.05.24c.74,0,1.42.41,1.76,1.07l8.28,15.77c.3.57.31,1.25.02,1.82l-8.05,16.1c-.34.68-1.03,1.11-1.79,1.11l-67.65-.12c-1.49,0-2.45-1.57-1.78-2.9l7.28-14.47c.28-.56.28-1.22,0-1.79L.58,2.89C-.08,1.56.89,0,2.38,0Z"/>
    <path class="cls-2" d="M41.54,21.33h-3.37l-.49,1.62h-2.1l3.39-9.8h1.78l3.39,9.8h-2.1l-.49-1.62ZM41.05,19.72l-1.19-3.92-1.2,3.92h2.39Z"/>
  </g>
</svg>