<svg width="20" height="24" viewBox="0 0 20 24" fill="none" xmlns="http://www.w3.org/2000/svg">
<g clip-path="url(#clip0_826_4548)">
<path d="M19.5803 13.0594C20.1383 12.4734 20.1383 11.5219 19.5803 10.9359L12.4375 3.43594C11.8794 2.85 10.9732 2.85 10.4151 3.43594C9.8571 4.02188 9.8571 4.97344 10.4151 5.55938L15.125 10.5H1.42853C0.638348 10.5 -4.3869e-05 11.1703 -4.3869e-05 12C-4.3869e-05 12.8297 0.638348 13.5 1.42853 13.5H15.1205L10.4196 18.4406C9.86156 19.0266 9.86156 19.9781 10.4196 20.5641C10.9776 21.15 11.8839 21.15 12.4419 20.5641L19.5848 13.0641L19.5803 13.0594Z" fill="black"/>
</g>
<defs>
<clipPath id="clip0_826_4548">
<rect width="20" height="24" fill="white" transform="matrix(-1 0 0 -1 20 24)"/>
</clipPath>
</defs>
</svg>
