<svg width="20" height="24" viewBox="0 0 20 24" fill="none" xmlns="http://www.w3.org/2000/svg">
<g clip-path="url(#clip0_826_4544)">
<path d="M0.419686 13.0594C-0.138349 12.4734 -0.138349 11.5219 0.419686 10.9359L7.56254 3.43594C8.12058 2.85 9.02683 2.85 9.58487 3.43594C10.1429 4.02188 10.1429 4.97344 9.58487 5.55938L4.87504 10.5H18.5715C19.3617 10.5 20 11.1703 20 12C20 12.8297 19.3617 13.5 18.5715 13.5H4.87951L9.5804 18.4406C10.1384 19.0266 10.1384 19.9781 9.5804 20.5641C9.02237 21.15 8.11612 21.15 7.55808 20.5641L0.415222 13.0641L0.419686 13.0594Z" fill="black"/>
</g>
<defs>
<clipPath id="clip0_826_4544">
<rect width="20" height="24" fill="white" transform="matrix(1 0 0 -1 0 24)"/>
</clipPath>
</defs>
</svg>
