<?xml version="1.0" encoding="UTF-8"?>
<svg id="Laag_2" data-name="Laag 2" xmlns="http://www.w3.org/2000/svg" viewBox="0 0 79.7 36.11">
  <defs>
    <style>
      .cls-1 {
        fill: #9dff4d;
      }

      .cls-1, .cls-2 {
        stroke-width: 0px;
      }

      .cls-2 {
        fill: #fdfdfd;
      }
    </style>
  </defs>
  <g id="Laag_2-2" data-name="Laag 2">
    <path class="cls-1" d="M2.38,0l67.05.24c.74,0,1.42.41,1.76,1.07l8.28,15.77c.3.57.31,1.25.02,1.82l-8.05,16.1c-.34.68-1.03,1.11-1.79,1.11l-67.65-.12c-1.49,0-2.45-1.57-1.78-2.9l7.28-14.47c.28-.56.28-1.22,0-1.79L.58,2.89C-.08,1.56.89,0,2.38,0Z"/>
    <path class="cls-2" d="M36.35,13.16h3.18c1.13,0,1.99.21,2.58.62.59.42.88,1.02.88,1.83,0,.47-.11.87-.32,1.2s-.55.62-1.01.85v.04c.6.22,1.03.52,1.29.9.27.37.4.86.4,1.47,0,.93-.27,1.65-.82,2.14-.55.5-1.34.74-2.39.74h-3.79v-9.8ZM39.71,17.06c.39,0,.7-.11.92-.33.22-.22.33-.52.33-.92s-.12-.66-.37-.84c-.25-.18-.63-.27-1.14-.27h-1.08v2.35h1.34ZM39.99,21.4c.44,0,.78-.13,1.02-.38.24-.25.36-.61.36-1.08,0-.49-.14-.85-.43-1.08-.29-.22-.76-.34-1.4-.34h-1.16v2.87h1.62Z"/>
  </g>
</svg>