<svg width="60" height="60" viewBox="0 0 60 60" fill="none" xmlns="http://www.w3.org/2000/svg">
<circle cx="30" cy="30" r="30" fill="#FDFDFD"/>
<path d="M39.3334 28.6669H24.4401L30.9467 22.1602C31.4667 21.6402 31.4667 20.7869 30.9467 20.2669C30.8234 20.1433 30.6769 20.0452 30.5156 19.9783C30.3543 19.9114 30.1814 19.877 30.0067 19.877C29.8321 19.877 29.6592 19.9114 29.4979 19.9783C29.3366 20.0452 29.1901 20.1433 29.0667 20.2669L20.2801 29.0535C20.1565 29.1769 20.0584 29.3234 19.9915 29.4847C19.9246 29.646 19.8901 29.8189 19.8901 29.9935C19.8901 30.1682 19.9246 30.3411 19.9915 30.5024C20.0584 30.6637 20.1565 30.8102 20.2801 30.9335L29.0667 39.7202C29.1902 39.8437 29.3367 39.9416 29.498 40.0084C29.6593 40.0752 29.8322 40.1096 30.0067 40.1096C30.1813 40.1096 30.3542 40.0752 30.5155 40.0084C30.6767 39.9416 30.8233 39.8437 30.9467 39.7202C31.0702 39.5968 31.1681 39.4502 31.2349 39.2889C31.3017 39.1277 31.3361 38.9548 31.3361 38.7802C31.3361 38.6056 31.3017 38.4328 31.2349 38.2715C31.1681 38.1102 31.0702 37.9637 30.9467 37.8402L24.4401 31.3335H39.3334C40.0667 31.3335 40.6667 30.7335 40.6667 30.0002C40.6667 29.2669 40.0667 28.6669 39.3334 28.6669Z" fill="black"/>
</svg>
