<svg width="46" height="46" viewBox="0 0 46 46" fill="none" xmlns="http://www.w3.org/2000/svg">
<g id="solar:wallet-money-linear">
<g id="Group">
<path id="Vector" d="M11.5 19.1667H19.1667" stroke="#0072FF" stroke-width="2.5" stroke-linecap="round" stroke-linejoin="round"/>
<path id="Vector_2" d="M39.9299 21.0833H34.9428C31.5215 21.0833 28.75 23.6574 28.75 26.8333C28.75 30.0092 31.5234 32.5833 34.9408 32.5833H39.9299C40.0909 32.5833 40.1695 32.5833 40.2366 32.5795C41.2716 32.5162 42.0957 31.7515 42.1628 30.7912C42.1667 30.7299 42.1667 30.6552 42.1667 30.5076V23.1591C42.1667 23.0115 42.1667 22.9367 42.1628 22.8754C42.0938 21.9152 41.2716 21.1504 40.2366 21.0872C40.1695 21.0833 40.0909 21.0833 39.9299 21.0833Z" stroke="#0072FF" stroke-width="2.5"/>
<path id="Vector_3" d="M40.1831 21.0833C40.0336 17.4953 39.5544 15.295 38.0038 13.7463C35.7594 11.5 32.1446 11.5 24.9168 11.5H19.1668C11.9391 11.5 8.32425 11.5 6.07983 13.7463C3.8335 15.9908 3.8335 19.6056 3.8335 26.8333C3.8335 34.0611 3.8335 37.6759 6.07983 39.9203C8.32425 42.1667 11.9391 42.1667 19.1668 42.1667H24.9168C32.1446 42.1667 35.7594 42.1667 38.0038 39.9203C39.5544 38.3717 40.0355 36.1713 40.1831 32.5833" stroke="#0072FF" stroke-width="2.5"/>
<path id="Vector_4" d="M11.5 11.5L18.6587 6.75242C19.6655 6.09757 20.8407 5.74899 22.0417 5.74899C23.2427 5.74899 24.4178 6.09757 25.4246 6.75242L32.5833 11.5" stroke="#0072FF" stroke-width="2.5" stroke-linecap="round"/>
<path id="Vector_5" d="M34.4829 26.8333H34.5021" stroke="#0072FF" stroke-width="2.5" stroke-linecap="round" stroke-linejoin="round"/>
</g>
</g>
</svg>
