<?xml version="1.0" encoding="UTF-8"?>
<svg id="Laag_2" data-name="Laag 2" xmlns="http://www.w3.org/2000/svg" viewBox="0 0 79.7 36.11">
  <defs>
    <style>
      .cls-1 {
        fill: #fdfdfd;
      }

      .cls-1, .cls-2 {
        stroke-width: 0px;
      }

      .cls-2 {
        fill: #fc0;
      }
    </style>
  </defs>
  <g id="Laag_2-2" data-name="Laag 2">
    <path class="cls-2" d="M2.38,0l67.05.24c.74,0,1.42.41,1.76,1.07l8.28,15.77c.3.57.31,1.25.02,1.82l-8.05,16.1c-.34.68-1.03,1.11-1.79,1.11l-67.65-.12c-1.49,0-2.45-1.57-1.78-2.9l7.28-14.47c.28-.56.28-1.22,0-1.79L.58,2.89C-.08,1.56.89,0,2.38,0Z"/>
    <path class="cls-1" d="M38.04,22.48c-.69-.41-1.21-1-1.58-1.76s-.55-1.65-.55-2.67.18-1.91.55-2.67.9-1.35,1.58-1.76c.69-.41,1.49-.62,2.42-.62.78,0,1.47.15,2.05.45.58.3,1.01.72,1.29,1.27l-1.15,1.01c-.5-.75-1.22-1.12-2.17-1.12-.83,0-1.47.29-1.9.88-.44.58-.66,1.44-.66,2.56s.21,1.96.64,2.55c.43.59,1.05.88,1.86.88,1.01,0,1.75-.37,2.23-1.12l1.15,1.01c-.28.55-.71.98-1.29,1.27-.58.3-1.27.45-2.06.45-.92,0-1.72-.21-2.4-.62Z"/>
  </g>
</svg>