<svg width="58" height="58" viewBox="0 0 58 58" fill="none" xmlns="http://www.w3.org/2000/svg">
<g id="clarity:date-line" clip-path="url(#clip0_288_5606)">
<g id="Group 399">
<path id="Vector" d="M51.9583 9.66675H46.7222V12.889H51.5556V48.3334H6.44444V12.889H11.2778V9.66675H6.04166C5.66504 9.67304 5.29335 9.75347 4.94782 9.90343C4.60229 10.0534 4.28969 10.27 4.02787 10.5408C3.76605 10.8116 3.56014 11.1313 3.42191 11.4817C3.28367 11.8321 3.21581 12.2062 3.22222 12.5829V48.6395C3.21581 49.0161 3.28367 49.3903 3.42191 49.7407C3.56014 50.0911 3.76605 50.4108 4.02787 50.6816C4.28969 50.9524 4.60229 51.169 4.94782 51.319C5.29335 51.4689 5.66504 51.5493 6.04166 51.5556H51.9583C52.3349 51.5493 52.7066 51.4689 53.0522 51.319C53.3977 51.169 53.7103 50.9524 53.9721 50.6816C54.2339 50.4108 54.4398 50.0911 54.5781 49.7407C54.7163 49.3903 54.7842 49.0161 54.7778 48.6395V12.5829C54.7842 12.2062 54.7163 11.8321 54.5781 11.4817C54.4398 11.1313 54.2339 10.8116 53.9721 10.5408C53.7103 10.27 53.3977 10.0534 53.0522 9.90343C52.7066 9.75347 52.3349 9.67304 51.9583 9.66675Z" fill="#0072FF"/>
<path id="Vector_2" d="M12.8889 22.5557H16.1111V25.7779H12.8889V22.5557Z" fill="#0072FF"/>
<path id="Vector_3" d="M22.5555 22.5557H25.7778V25.7779H22.5555V22.5557Z" fill="#0072FF"/>
<path id="Vector_4" d="M32.2222 22.5557H35.4445V25.7779H32.2222V22.5557Z" fill="#0072FF"/>
<path id="Vector_5" d="M41.8889 22.5557H45.1111V25.7779H41.8889V22.5557Z" fill="#0072FF"/>
<path id="Vector_6" d="M12.8889 30.6111H16.1111V33.8333H12.8889V30.6111Z" fill="#0072FF"/>
<path id="Vector_7" d="M22.5555 30.6111H25.7778V33.8333H22.5555V30.6111Z" fill="#0072FF"/>
<path id="Vector_8" d="M32.2222 30.6111H35.4445V33.8333H32.2222V30.6111Z" fill="#0072FF"/>
<path id="Vector_9" d="M41.8889 30.6111H45.1111V33.8333H41.8889V30.6111Z" fill="#0072FF"/>
<path id="Vector_10" d="M12.8889 38.6667H16.1111V41.889H12.8889V38.6667Z" fill="#0072FF"/>
<path id="Vector_11" d="M22.5555 38.6667H25.7778V41.889H22.5555V38.6667Z" fill="#0072FF"/>
<path id="Vector_12" d="M32.2222 38.6667H35.4445V41.889H32.2222V38.6667Z" fill="#0072FF"/>
<path id="Vector_13" d="M41.8889 38.6667H45.1111V41.889H41.8889V38.6667Z" fill="#0072FF"/>
<path id="Vector_14" d="M16.1111 16.1111C16.5384 16.1111 16.9482 15.9413 17.2503 15.6392C17.5525 15.337 17.7222 14.9272 17.7222 14.4999V4.83328C17.7222 4.40599 17.5525 3.99619 17.2503 3.69405C16.9482 3.39191 16.5384 3.22217 16.1111 3.22217C15.6838 3.22217 15.274 3.39191 14.9719 3.69405C14.6697 3.99619 14.5 4.40599 14.5 4.83328V14.4999C14.5 14.9272 14.6697 15.337 14.9719 15.6392C15.274 15.9413 15.6838 16.1111 16.1111 16.1111Z" fill="#0072FF"/>
<path id="Vector_15" d="M41.8889 16.1111C42.3162 16.1111 42.726 15.9413 43.0281 15.6392C43.3303 15.337 43.5 14.9272 43.5 14.4999V4.83328C43.5 4.40599 43.3303 3.99619 43.0281 3.69405C42.726 3.39191 42.3162 3.22217 41.8889 3.22217C41.4616 3.22217 41.0518 3.39191 40.7497 3.69405C40.4475 3.99619 40.2778 4.40599 40.2778 4.83328V14.4999C40.2778 14.9272 40.4475 15.337 40.7497 15.6392C41.0518 15.9413 41.4616 16.1111 41.8889 16.1111Z" fill="#0072FF"/>
<path id="Vector_16" d="M20.9445 9.66675H37.0556V12.889H20.9445V9.66675Z" fill="#0072FF"/>
</g>
</g>
<defs>
<clipPath id="clip0_288_5606">
<rect width="58" height="58" fill="white"/>
</clipPath>
</defs>
</svg>
