<?xml version="1.0" encoding="UTF-8"?>
<svg id="Laag_2" data-name="Laag 2" xmlns="http://www.w3.org/2000/svg" viewBox="0 0 79.7 36.11">
  <defs>
    <style>
      .cls-1 {
        fill: #fdfdfd;
      }

      .cls-1, .cls-2 {
        stroke-width: 0px;
      }

      .cls-2 {
        fill: #f90;
      }
    </style>
  </defs>
  <g id="Laag_2-2" data-name="Laag 2">
    <path class="cls-2" d="M2.38,0l67.05.24c.74,0,1.42.41,1.76,1.07l8.28,15.77c.3.57.31,1.25.02,1.82l-8.05,16.1c-.34.68-1.03,1.11-1.79,1.11l-67.65-.12c-1.49,0-2.45-1.57-1.78-2.9l7.28-14.47c.28-.56.28-1.22,0-1.79L.58,2.89C-.08,1.56.89,0,2.38,0Z"/>
    <path class="cls-1" d="M36.09,13.16h3.5c2.68,0,4.02,1.57,4.02,4.72,0,1.21-.15,2.19-.45,2.93-.3.74-.77,1.29-1.41,1.63-.64.35-1.49.52-2.54.52h-3.12v-9.8ZM39.42,21.35c.53,0,.96-.12,1.27-.35.32-.23.55-.6.69-1.11.14-.5.22-1.18.22-2.02,0-1.11-.16-1.91-.48-2.39-.32-.48-.85-.72-1.58-.72h-1.44v6.58h1.32Z"/>
  </g>
</svg>