<svg width="18" height="20" viewBox="0 0 18 20" fill="none" xmlns="http://www.w3.org/2000/svg">
<path id="Vector" fill-rule="evenodd" clip-rule="evenodd" d="M10.384 2.06897H7.61459C7.43096 2.06897 7.25486 2.14163 7.12501 2.27096C6.99517 2.4003 6.92223 2.57571 6.92223 2.75862V3.44828H11.0764V2.75862C11.0764 2.57571 11.0034 2.4003 10.8736 2.27096C10.7438 2.14163 10.5677 2.06897 10.384 2.06897ZM13.1535 3.44828V2.75862C13.1535 2.02699 12.8617 1.32532 12.3423 0.807981C11.823 0.29064 11.1185 0 10.384 0H7.61459C6.88008 0 6.17566 0.29064 5.65629 0.807981C5.13692 1.32532 4.84514 2.02699 4.84514 2.75862V3.44828H1.03854C0.763103 3.44828 0.498946 3.55727 0.304182 3.75127C0.109417 3.94527 0 4.2084 0 4.48276C0 4.75712 0.109417 5.02025 0.304182 5.21425C0.498946 5.40825 0.763103 5.51724 1.03854 5.51724H1.47057L1.90953 16.0345C1.9542 17.1013 2.41113 18.1096 3.1848 18.8487C3.95848 19.5877 4.989 20.0002 6.06093 20H11.9391C13.0108 19.9999 14.0409 19.5872 14.8143 18.8482C15.5877 18.1092 16.0444 17.1011 16.0891 16.0345L16.5294 5.51724H16.9615C17.2369 5.51724 17.5011 5.40825 17.6958 5.21425C17.8906 5.02025 18 4.75712 18 4.48276C18 4.2084 17.8906 3.94527 17.6958 3.75127C17.5011 3.55727 17.2369 3.44828 16.9615 3.44828H13.1535ZM14.4496 5.51724H3.54904L3.98523 15.9476C4.00739 16.4811 4.23578 16.9855 4.62263 17.3551C5.00949 17.7248 5.52485 17.9311 6.06093 17.931H11.9391C12.4749 17.9308 12.9899 17.7243 13.3765 17.3546C13.763 16.985 13.9912 16.4809 14.0134 15.9476L14.4496 5.51724ZM5.88368 8.27586V15.1724C5.88368 15.4468 5.9931 15.7099 6.18787 15.9039C6.38263 16.0979 6.64679 16.2069 6.92223 16.2069C7.19766 16.2069 7.46182 16.0979 7.65659 15.9039C7.85135 15.7099 7.96077 15.4468 7.96077 15.1724V8.27586C7.96077 8.0015 7.85135 7.73838 7.65659 7.54437C7.46182 7.35037 7.19766 7.24138 6.92223 7.24138C6.64679 7.24138 6.38263 7.35037 6.18787 7.54437C5.9931 7.73838 5.88368 8.0015 5.88368 8.27586ZM11.0764 7.24138C11.3518 7.24138 11.616 7.35037 11.8108 7.54437C12.0055 7.73838 12.1149 8.0015 12.1149 8.27586V15.1724C12.1149 15.4468 12.0055 15.7099 11.8108 15.9039C11.616 16.0979 11.3518 16.2069 11.0764 16.2069C10.801 16.2069 10.5368 16.0979 10.342 15.9039C10.1473 15.7099 10.0378 15.4468 10.0378 15.1724V8.27586C10.0378 8.0015 10.1473 7.73838 10.342 7.54437C10.5368 7.35037 10.801 7.24138 11.0764 7.24138Z" fill="#FF0033"/>
</svg>
