<?xml version="1.0" encoding="UTF-8"?>
<svg id="Laag_2" data-name="Laag 2" xmlns="http://www.w3.org/2000/svg" viewBox="0 0 79.7 36.11">
  <defs>
    <style>
      .cls-1 {
        fill: #f60;
      }

      .cls-1, .cls-2 {
        stroke-width: 0px;
      }

      .cls-2 {
        fill: #fdfdfd;
      }
    </style>
  </defs>
  <g id="Laag_2-2" data-name="Laag 2">
    <path class="cls-1" d="M2.38,0l67.05.24c.74,0,1.42.41,1.76,1.07l8.28,15.77c.3.57.31,1.25.02,1.82l-8.05,16.1c-.34.68-1.03,1.11-1.79,1.11l-67.65-.12c-1.49,0-2.45-1.57-1.78-2.9l7.28-14.47c.28-.56.28-1.22,0-1.79L.58,2.89C-.08,1.56.89,0,2.38,0Z"/>
  </g>
  <g id="Laag_4" data-name="Laag 4">
    <path class="cls-2" d="M36.6,13.16h6.51v1.61h-4.49v2.24h4v1.61h-4v2.73h4.49v1.61h-6.51v-9.8Z"/>
  </g>
</svg>