<svg width="17" height="17" viewBox="0 0 17 17" fill="none" xmlns="http://www.w3.org/2000/svg">
<g id="Group 516">
<path id="Vector" d="M0 17L1.5233 10.9678L10.6021 1.88892L15.1111 6.39788L6.03226 15.4767L0 17ZM2.62007 11.5771L1.70609 15.2939L5.42294 14.38L13.405 6.39788L10.6021 3.59501L2.62007 11.5771Z" fill="#0072FF"/>
<path id="Vector_2" d="M5.10003 15.1112C4.72225 13.7619 3.46299 12.6826 1.88892 12.3588L2.20373 11.3334C4.21855 11.7651 5.79262 13.1143 6.29632 14.8413L5.10003 15.1112Z" fill="#0072FF"/>
<path id="Vector_3" d="M11.683 4.41818L12.5371 5.2755L4.67813 13.1697L3.82398 12.3148L11.683 4.41818ZM0.629639 16.3704L2.38145 15.946C2.20023 15.279 1.71697 14.794 1.05249 14.6121L0.629639 16.3704ZM15.1274 6.30562L10.6572 1.81893L12.4695 0L12.7715 0.0606312C14.9462 0.363786 16.6376 2.06145 16.9396 4.24417L17 4.54733L15.1274 6.30562ZM12.3486 1.81893L15.1274 4.60796L15.6711 4.06228C15.369 2.66776 14.2817 1.57641 12.8923 1.27325L12.3486 1.81893Z" fill="#0072FF"/>
</g>
</svg>
