<svg width="24" height="24" viewBox="0 0 24 24" fill="none" xmlns="http://www.w3.org/2000/svg">
<g id="ei:pencil">
<path id="Vector" d="M4.60797 19.392L5.80797 14.64L12.96 7.48804L16.512 11.04L9.35997 18.192L4.60797 19.392ZM6.67197 15.12L5.95197 18.048L8.87997 17.328L15.168 11.04L12.96 8.83204L6.67197 15.12Z" fill="black"/>
<path id="Vector_2" d="M8.54401 17.9039C8.25601 16.7039 7.29601 15.7439 6.09601 15.4559L6.33601 14.5439C7.87201 14.9279 9.07201 16.1279 9.45601 17.6639L8.54401 17.9039Z" fill="black"/>
<path id="Vector_3" d="M14.0631 9.25777L14.7418 9.93649L8.49699 16.1861L7.81827 15.5093L14.0631 9.25777ZM5.28003 18.72L6.67203 18.384C6.52803 17.856 6.14403 17.472 5.61603 17.328L5.28003 18.72ZM16.8 10.752L13.248 7.20001L14.688 5.76001L14.928 5.80801C16.656 6.04801 18 7.39201 18.24 9.12001L18.288 9.36001L16.8 10.752ZM14.592 7.20001L16.8 9.40801L17.232 8.97601C16.992 7.87201 16.128 7.00801 15.024 6.76801L14.592 7.20001Z" fill="black"/>
</g>
</svg>
