<svg width="173" height="320" viewBox="0 0 173 320" fill="none" xmlns="http://www.w3.org/2000/svg">
<g clip-path="url(#clip0_1508_6132)">
<path d="M71.9199 128.54C71.9199 128.54 86.4499 134.42 91.5899 134.71C97.3399 135.04 109.3 132.56 117.55 129.53C122.11 127.86 128.98 127.8 129.74 124.6C130.31 122.19 128.1 118.24 125.62 118.2C123.14 118.16 115.58 122.43 115.58 122.43C115.58 122.43 100.32 125.79 95.1999 125.29C91.0999 124.89 79.6299 119.91 79.6299 119.91L71.9299 128.54H71.9199Z" fill="#F49F75"/>
<path d="M48.9901 103.74L48.2601 87.66C48.2601 87.66 53.3501 88.03 54.5301 86.99C60.9501 81.32 54.3101 68.63 54.3101 68.63L44.5601 63.46C43.9301 63.13 43.1601 63.46 42.9901 64.16L41.7901 68.86C40.7101 73.1 36.9501 76.12 32.5801 76.25L32.6901 80.04C32.7701 82.78 33.9401 85.37 35.9401 87.23L34.6001 105.55L41.3401 95.25L48.9801 103.76L48.9901 103.74Z" fill="#F49F75"/>
<path d="M54.3101 68.62C54.3101 68.62 47.0701 71.9 41.3601 71.75C39.5701 78.31 42.8501 75.63 36.1901 86.96C35.3201 88.43 26.0501 78.91 31.2201 65.88C31.9501 64.05 34.8101 64.07 35.3001 63.89C37.5701 63.06 39.9501 61.49 42.3601 61.7C58.6701 61.45 54.3201 68.61 54.3201 68.61L54.3101 68.62Z" fill="#252F45"/>
<path d="M53.1601 97.19L46.2701 95.14L35.4601 95.65L32.5701 97.87L45.8401 113.02L53.1601 97.19Z" fill="#F49F75"/>
<path d="M67.5899 175.65L16.65 176.29L20.22 126.38L17.16 132.85L6.94995 123.66C6.94995 123.66 10.69 106.64 24.99 101.19C27.09 100.39 33.16 97.45 33.16 97.45L36.41 99.29C41.13 101.97 47.0999 100.9 50.59 96.74L50.86 96.42C50.86 96.42 62.84 98.37 66.18 100.51C71.3299 103.79 81.84 119.23 81.84 119.23C81.84 119.23 74.2999 130.11 70.9499 128.76C56.1399 122.8 66.18 118.21 66.18 118.21L67.58 175.66L67.5899 175.65Z" fill="#A0B9E1"/>
<path d="M66.01 100.33C71.16 103.61 81.67 119.05 81.67 119.05C81.67 119.05 71.66 132.01 70.63 128.54C68.29 127.35 68.95 127.82 66.35 126.58C67.03 114.37 68.31 108.24 66.01 100.32V100.33Z" fill="#B4C5DD"/>
<path d="M72.0573 130.116L83.5403 121.084C83.6749 120.978 83.6981 120.783 83.5923 120.648L82.4361 119.178C82.3303 119.044 82.1354 119.021 82.0008 119.126L70.5178 128.159C70.3833 128.265 70.36 128.46 70.4659 128.595L71.622 130.064C71.7279 130.199 71.9228 130.222 72.0573 130.116Z" fill="#262626"/>
<path d="M7.12002 126.21C7.12002 126.21 1.02002 140.65 0.650017 145.78C0.240017 151.53 2.54002 163.52 5.44002 171.82C7.04002 176.41 7.00002 183.28 10.19 184.08C12.59 184.69 16.58 182.54 16.65 180.06C16.72 177.58 12.57 169.95 12.57 169.95C12.57 169.95 9.44002 154.64 10.02 149.52C10.48 145.43 15.64 134.03 15.64 134.03L7.13002 126.2L7.12002 126.21Z" fill="#F49F75"/>
<path d="M121.151 133.872L121.161 133.874C122.638 134.148 124.057 133.172 124.331 131.695L137.98 58.0496C138.254 56.5726 137.278 55.1532 135.801 54.8795L135.791 54.8777C134.314 54.6039 132.895 55.5794 132.621 57.0564L118.972 130.702C118.698 132.179 119.674 133.599 121.151 133.872Z" fill="#262626"/>
<path d="M47.3999 304.95L44.9399 318.31L77.6099 319.22L58.5599 304.79L47.3999 304.95Z" fill="#76574E"/>
<path d="M2.47 305.29L0 318.65L32.68 319.57L13.62 305.13L2.47 305.29Z" fill="#76574E"/>
<path d="M136.42 71.42C156.142 71.42 172.13 55.4321 172.13 35.71C172.13 15.9879 156.142 0 136.42 0C116.698 0 100.71 15.9879 100.71 35.71C100.71 55.4321 116.698 71.42 136.42 71.42Z" fill="#4A6EB4"/>
<path d="M136.42 67.33C153.883 67.33 168.04 53.1732 168.04 35.71C168.04 18.2467 153.883 4.08997 136.42 4.08997C118.957 4.08997 104.8 18.2467 104.8 35.71C104.8 53.1732 118.957 67.33 136.42 67.33Z" fill="#FEFEFE"/>
<path d="M134.1 58.1199C136.359 58.1199 138.19 56.2888 138.19 54.0299C138.19 51.7711 136.359 49.9399 134.1 49.9399C131.841 49.9399 130.01 51.7711 130.01 54.0299C130.01 56.2888 131.841 58.1199 134.1 58.1199Z" fill="#3668B1"/>
<path d="M137.395 15.6306L133.601 41.231C133.381 42.717 134.407 44.1002 135.893 44.3204L135.903 44.3219C137.389 44.5421 138.772 43.516 138.992 42.03L142.786 16.4296C143.007 14.9436 141.98 13.5605 140.494 13.3402L140.485 13.3388C138.999 13.1186 137.615 14.1447 137.395 15.6306Z" fill="#3668B1"/>
<path d="M5.20421 124.848L15.943 134.754C16.0689 134.87 16.265 134.862 16.3811 134.736L17.649 133.361C17.7651 133.236 17.7572 133.04 17.6313 132.923L6.89251 123.017C6.76667 122.901 6.57055 122.909 6.45446 123.035L5.18653 124.41C5.07045 124.535 5.07836 124.732 5.20421 124.848Z" fill="#262626"/>
<path d="M27.83 67.35C33.27 65.86 47.86 62.01 53.85 60.24C52.06 53.68 44.78 49.95 37.59 51.91C30.4 53.87 26.03 60.78 27.83 67.35Z" fill="#FFCC07"/>
<path d="M29.8282 73.9102L55.4686 66.9054C56.5874 66.5997 57.2466 65.445 56.941 64.3262L56.24 61.7602C55.9343 60.6414 54.7796 59.9822 53.6608 60.2879L28.0204 67.2927C26.9016 67.5983 26.2424 68.753 26.548 69.8718L27.249 72.4378C27.5547 73.5566 28.7094 74.2158 29.8282 73.9102Z" fill="#FFCC07"/>
<path d="M19.8899 133.02C19.8899 133.02 14.8099 160.88 13.9999 170.56C11.7899 196.93 1.16992 305.1 1.16992 305.1H15.4699L36.4899 207.31L46.8699 305.1L62.2699 305.61C62.2699 305.61 69.3899 196.84 69.2399 170.33C69.1799 160.41 66.4399 132.59 66.4399 132.59L61.2499 119.91L64.8599 100.2C64.9299 99.8 64.6799 99.41 64.2799 99.32L60.7299 98.47L56.6399 119.32L34.0699 118.8L26.4199 100.34L23.1499 101.7C22.7099 101.88 22.5099 102.4 22.7199 102.83L30.8199 119.71L19.8699 133.02H19.8899Z" fill="#5579BB"/>
<path d="M36.86 147.23H53.71C56.3665 147.23 58.52 145.076 58.52 142.42V131.99C58.52 129.333 56.3665 127.18 53.71 127.18H36.86C34.2035 127.18 32.05 129.333 32.05 131.99V142.42C32.05 145.076 34.2035 147.23 36.86 147.23Z" fill="#A0B9E1"/>
</g>
<defs>
<clipPath id="clip0_1508_6132">
<rect width="172.13" height="319.57" fill="white"/>
</clipPath>
</defs>
</svg>
