<?xml version="1.0" encoding="UTF-8"?>
<svg id="Laag_2" data-name="Laag 2" xmlns="http://www.w3.org/2000/svg" viewBox="0 0 313.34 274.9">
  <defs>
    <style>
      .cls-1 {
        fill: #252f45;
      }

      .cls-1, .cls-2, .cls-3, .cls-4, .cls-5, .cls-6, .cls-7, .cls-8, .cls-9, .cls-10, .cls-11, .cls-12, .cls-13, .cls-14, .cls-15, .cls-16, .cls-17 {
        stroke-width: 0px;
      }

      .cls-2 {
        fill: #e1eff5;
      }

      .cls-3 {
        fill: #fefefe;
      }

      .cls-4 {
        fill: #a0b9e1;
      }

      .cls-5 {
        fill: #262626;
      }

      .cls-6 {
        fill: #ec681c;
      }

      .cls-7 {
        fill: #f4991a;
      }

      .cls-8 {
        fill: #7ab929;
      }

      .cls-9 {
        fill: #3d62ac;
      }

      .cls-18 {
        fill: none;
        stroke: #fff;
        stroke-miterlimit: 10;
        stroke-width: 3px;
      }

      .cls-10 {
        fill: #a7c82d;
      }

      .cls-11 {
        fill: #76574e;
      }

      .cls-12 {
        fill: #edf0f5;
      }

      .cls-13 {
        fill: #3668b1;
      }

      .cls-14 {
        fill: #57b031;
      }

      .cls-15 {
        fill: #ffcc07;
      }

      .cls-16 {
        fill: #e6233c;
      }

      .cls-17 {
        fill: #f49f75;
      }
    </style>
  </defs>
  <g id="Laag_12" data-name="Laag 12">
    <g>
      <polygon class="cls-5" points="245.77 132.66 252.66 260.59 266.45 260.59 276.06 160.6 297.85 260.59 312.15 260.59 296.49 132.42 245.77 132.66"/>
      <rect class="cls-4" width="204.51" height="247.4" rx="12.22" ry="12.22"/>
      <rect class="cls-3" x="8.04" y="9.73" width="188.43" height="227.95" rx="11.25" ry="11.25"/>
      <polygon class="cls-11" points="265.94 260.29 268.41 273.65 235.73 274.56 254.78 260.12 265.94 260.29"/>
      <polygon class="cls-11" points="310.88 260.63 313.34 273.99 280.66 274.9 299.72 260.46 310.88 260.63"/>
      <path class="cls-17" d="M246.7,84.03s-13.21,7.8-18.18,9.14c-5.56,1.5-17.77,1.53-26.47.27-4.81-.7-11.55.66-12.94-2.32-1.05-2.24.3-6.57,2.71-7.11s10.7,2.07,10.7,2.07c0,0,15.63.15,20.54-1.39,3.93-1.23,12.41-10.88,12.41-10.88l11.23,10.21Z"/>
      <path class="cls-17" d="M263.35,62.08l.73-16.08s-5.09.37-6.27-.67c-6.42-5.67.22-18.36.22-18.36l9.75-5.17c.63-.33,1.4,0,1.57.7l1.2,4.7c1.08,4.24,4.84,7.26,9.21,7.39h0s-.11,3.79-.11,3.79c-.08,2.74-1.25,5.33-3.25,7.19h0s1.34,18.32,1.34,18.32l-6.74-10.3-7.64,8.51Z"/>
      <path class="cls-1" d="M258.03,26.96s7.24,3.28,12.95,3.13c1.79,6.56-1.49,3.88,5.17,15.21.87,1.47,10.14-8.05,4.97-21.08-.73-1.83-3.59-1.81-4.08-1.99-2.27-.83-4.65-2.4-7.06-2.19-16.31-.25-11.96,6.91-11.96,6.91Z"/>
      <polygon class="cls-17" points="259.18 55.52 266.07 53.48 276.88 53.99 279.78 56.2 266.5 71.35 259.18 55.52"/>
      <path class="cls-13" d="M245.44,134.16l53.01.3-5.65-49.58-.48,6.85,13.45-.34s-3.44-26.26-17.74-31.7c-2.1-.8-8.17-3.74-8.17-3.74l-3.25,1.84c-4.72,2.68-10.69,1.61-14.18-2.55l-.27-.32s-11.98,1.95-15.32,4.09c-5.15,3.28-15.66,18.72-15.66,18.72,0,0,7.54,10.88,10.89,9.53,14.81-5.96,4.77-10.55,4.77-10.55l-1.4,57.45Z"/>
      <path class="cls-9" d="M247.01,58.84c-5.15,3.28-15.66,18.72-15.66,18.72,0,0,10.01,12.96,11.04,9.49,2.34-1.19,1.68-.72,4.28-1.96-.68-12.21-1.96-18.34.34-26.26Z"/>
      <rect class="cls-2" x="235.98" y="78.29" width="29.62" height="38.3" rx="4.6" ry="4.6" transform="translate(23.22 -46.09) rotate(11.01)"/>
      <path class="cls-17" d="M305.23,91.42s-.66,18.87-5.94,20.57-23.23-2.37-31.48-5.4c-4.56-1.67-11.43-1.73-12.19-4.93-.57-2.41,1.64-6.36,4.12-6.4s10.04,4.23,10.04,4.23c0,0,17.24,3.8,22.36,3.3,4.1-.4,1.19-11.23,1.19-11.23l11.89-.15Z"/>
      <path class="cls-14" d="M162.44,58.38l20.02.07c.22,0,.42.12.53.32l2.47,4.71c.09.17.09.37,0,.54l-2.4,4.81c-.1.2-.31.33-.54.33l-20.2-.04c-.44,0-.73-.47-.53-.87l2.18-4.32c.08-.17.09-.37,0-.53l-2.07-4.16c-.2-.4.09-.86.54-.86Z"/>
      <path class="cls-10" d="M115.22,58.38l20.02.07c.22,0,.42.12.53.32l2.47,4.71c.09.17.09.37,0,.54l-2.4,4.81c-.1.2-.31.33-.54.33l-20.2-.04c-.44,0-.73-.47-.53-.87l2.18-4.32c.08-.17.09-.37,0-.53l-2.07-4.16c-.2-.4.09-.86.54-.86Z"/>
      <path class="cls-15" d="M91.62,58.38l20.02.07c.22,0,.42.12.53.32l2.47,4.71c.09.17.09.37,0,.54l-2.4,4.81c-.1.2-.31.33-.54.33l-20.2-.04c-.44,0-.73-.47-.53-.87l2.18-4.32c.08-.17.09-.37,0-.53l-2.07-4.16c-.2-.4.09-.86.54-.86Z"/>
      <path class="cls-8" d="M138.83,58.38l20.02.07c.22,0,.42.12.53.32l2.47,4.71c.09.17.09.37,0,.54l-2.4,4.81c-.1.2-.31.33-.54.33l-20.2-.04c-.44,0-.73-.47-.53-.87l2.18-4.32c.08-.17.09-.37,0-.53l-2.07-4.16c-.2-.4.09-.86.54-.86Z"/>
      <path class="cls-6" d="M44.4,58.38l20.02.07c.22,0,.42.12.53.32l2.47,4.71c.09.17.09.37,0,.54l-2.4,4.81c-.1.2-.31.33-.54.33l-20.2-.04c-.44,0-.73-.47-.53-.87l2.18-4.32c.08-.17.09-.37,0-.53l-2.07-4.16c-.2-.4.09-.86.54-.86Z"/>
      <path class="cls-16" d="M20.79,58.38l20.02.07c.22,0,.42.12.53.32l2.47,4.71c.09.17.09.37,0,.54l-2.4,4.81c-.1.2-.31.33-.54.33l-20.2-.04c-.44,0-.73-.47-.53-.87l2.18-4.32c.08-.17.09-.37,0-.53l-2.07-4.16c-.2-.4.09-.86.54-.86Z"/>
      <path class="cls-7" d="M68.01,58.38l20.02.07c.22,0,.42.12.53.32l2.47,4.71c.09.17.09.37,0,.54l-2.4,4.81c-.1.2-.31.33-.54.33l-20.2-.04c-.44,0-.73-.47-.53-.87l2.18-4.32c.08-.17.09-.37,0-.53l-2.07-4.16c-.2-.4.09-.86.54-.86Z"/>
      <path class="cls-10" d="M140.75,185.75l2.89,24.35c.16,1.32.83,2.51,1.87,3.33l12.67,9.99c1.71,1.35,4.09,1.43,5.89.22l14.14-9.57c1.15-.78,1.93-2.01,2.14-3.38l3.63-23.63c.37-2.43-1.08-4.77-3.42-5.52l-18.04-5.76c-.96-.31-2-.32-2.97-.02l-15.29,4.62c-2.32.7-3.8,2.97-3.52,5.37Z"/>
      <polyline class="cls-18" points="150.52 196.09 160.43 205.44 176.61 190.23"/>
      <rect class="cls-12" x="19.75" y="83.65" width="166.53" height="5.59"/>
      <rect class="cls-12" x="19.75" y="100.43" width="166.53" height="5.59"/>
      <rect class="cls-12" x="19.75" y="117.2" width="166.53" height="5.59"/>
      <rect class="cls-12" x="19.75" y="133.98" width="166.53" height="5.59"/>
      <rect class="cls-12" x="26.89" y="195.57" width="73.94" height="2.53"/>
      <rect class="cls-12" x="26.89" y="203.16" width="73.94" height="2.53"/>
      <rect class="cls-12" x="26.89" y="210.75" width="73.94" height="2.53"/>
    </g>
  </g>
</svg>