<svg width="173" height="320" viewBox="0 0 173 320" fill="none" xmlns="http://www.w3.org/2000/svg">
<g clip-path="url(#clip0_1508_6627)">
<path d="M100.21 128.54C100.21 128.54 85.68 134.42 80.54 134.71C74.79 135.04 62.83 132.56 54.58 129.53C50.02 127.86 43.15 127.8 42.39 124.6C41.82 122.19 44.03 118.24 46.51 118.2C48.99 118.16 56.55 122.43 56.55 122.43C56.55 122.43 71.81 125.79 76.93 125.29C81.03 124.89 92.5 119.91 92.5 119.91L100.2 128.54H100.21Z" fill="#F49F75"/>
<path d="M123.14 103.74L123.87 87.66C123.87 87.66 118.78 88.03 117.6 86.99C111.18 81.32 117.82 68.63 117.82 68.63L127.57 63.46C128.2 63.13 128.97 63.46 129.14 64.16L130.34 68.86C131.42 73.1 135.18 76.12 139.55 76.25L139.44 80.04C139.36 82.78 138.19 85.37 136.19 87.23L137.53 105.55L130.79 95.25L123.15 103.76L123.14 103.74Z" fill="#F49F75"/>
<path d="M117.82 68.62C117.82 68.62 125.06 71.9 130.77 71.75C132.56 78.31 129.28 75.63 135.94 86.96C136.81 88.43 146.08 78.91 140.91 65.88C140.18 64.05 137.32 64.07 136.83 63.89C134.56 63.06 132.18 61.49 129.77 61.7C113.46 61.45 117.81 68.61 117.81 68.61L117.82 68.62Z" fill="#252F45"/>
<path d="M118.97 97.19L125.86 95.14L136.67 95.65L139.56 97.87L126.29 113.02L118.97 97.19Z" fill="#F49F75"/>
<path d="M104.54 175.65L155.48 176.29L151.91 126.38L154.97 132.85L165.18 123.66C165.18 123.66 161.44 106.64 147.14 101.19C145.04 100.39 138.97 97.45 138.97 97.45L135.72 99.29C131 101.97 125.03 100.9 121.54 96.74L121.27 96.42C121.27 96.42 109.29 98.37 105.95 100.51C100.8 103.79 90.29 119.23 90.29 119.23C90.29 119.23 97.83 130.11 101.18 128.76C115.99 122.8 105.95 118.21 105.95 118.21L104.55 175.66L104.54 175.65Z" fill="#E6233C"/>
<path d="M106.12 100.33C100.97 103.61 90.46 119.05 90.46 119.05C90.46 119.05 100.47 132.01 101.5 128.54C103.84 127.35 103.18 127.82 105.78 126.58C105.1 114.37 103.82 108.24 106.12 100.32V100.33Z" fill="#E53856"/>
<path d="M101.618 128.169L90.1355 119.136C90.0009 119.031 89.806 119.054 89.7002 119.188L88.544 120.658C88.4382 120.793 88.4614 120.988 88.596 121.094L100.079 130.126C100.214 130.232 100.408 130.209 100.514 130.075L101.67 128.605C101.776 128.47 101.753 128.275 101.618 128.169Z" fill="#182829"/>
<path d="M165.01 126.21C165.01 126.21 171.11 140.65 171.48 145.78C171.89 151.53 169.59 163.52 166.69 171.82C165.09 176.41 165.13 183.28 161.94 184.08C159.54 184.69 155.55 182.54 155.48 180.06C155.41 177.58 159.56 169.95 159.56 169.95C159.56 169.95 162.69 154.64 162.11 149.52C161.65 145.43 156.49 134.03 156.49 134.03L165 126.2L165.01 126.21Z" fill="#F49F75"/>
<path d="M36.3378 54.8858L36.328 54.8876C34.851 55.1614 33.8755 56.5807 34.1492 58.0578L47.7987 131.704C48.0724 133.181 49.4918 134.156 50.9688 133.882L50.9787 133.881C52.4557 133.607 53.4312 132.187 53.1574 130.71L39.508 57.0646C39.2342 55.5875 37.8149 54.612 36.3378 54.8858Z" fill="#273238"/>
<path d="M124.73 304.95L127.19 318.31L94.52 319.22L113.57 304.79L124.73 304.95Z" fill="#76574E"/>
<path d="M169.66 305.29L172.13 318.65L139.45 319.57L158.51 305.13L169.66 305.29Z" fill="#76574E"/>
<path d="M35.71 71.42C55.4321 71.42 71.42 55.4321 71.42 35.71C71.42 15.9879 55.4321 0 35.71 0C15.9879 0 0 15.9879 0 35.71C0 55.4321 15.9879 71.42 35.71 71.42Z" fill="#E6233C"/>
<path d="M35.71 67.33C53.1732 67.33 67.33 53.1732 67.33 35.71C67.33 18.2467 53.1732 4.08997 35.71 4.08997C18.2467 4.08997 4.08997 18.2467 4.08997 35.71C4.08997 53.1732 18.2467 67.33 35.71 67.33Z" fill="#FEFEFE"/>
<path d="M38.0299 58.1201C40.2888 58.1201 42.1199 56.2889 42.1199 54.0301C42.1199 51.7712 40.2888 49.9401 38.0299 49.9401C35.7711 49.9401 33.9399 51.7712 33.9399 54.0301C33.9399 56.2889 35.7711 58.1201 38.0299 58.1201Z" fill="#E6233C"/>
<path d="M31.6341 13.3436L31.6242 13.345C30.1382 13.5652 29.1121 14.9484 29.3323 16.4344L33.1264 42.0348C33.3466 43.5208 34.7298 44.5469 36.2157 44.3266L36.2256 44.3252C37.7116 44.1049 38.7377 42.7218 38.5175 41.2358L34.7235 15.6354C34.5032 14.1494 33.1201 13.1233 31.6341 13.3436Z" fill="#E6233C"/>
<path d="M165.252 123L154.513 132.906C154.387 133.022 154.379 133.218 154.495 133.344L155.763 134.719C155.879 134.844 156.075 134.852 156.201 134.736L166.94 124.83C167.066 124.714 167.074 124.518 166.958 124.392L165.69 123.018C165.574 122.892 165.377 122.884 165.252 123Z" fill="#262626"/>
<path d="M144.31 67.35C138.87 65.86 124.28 62.01 118.29 60.24C120.08 53.68 127.36 49.95 134.55 51.91C141.74 53.87 146.11 60.78 144.31 67.35Z" fill="#FFCC07"/>
<path d="M144.114 67.2844L118.474 60.2796C117.355 59.974 116.2 60.6332 115.895 61.752L115.194 64.3179C114.888 65.4367 115.547 66.5915 116.666 66.8971L142.306 73.9019C143.425 74.2076 144.58 73.5484 144.885 72.4296L145.586 69.8636C145.892 68.7448 145.233 67.5901 144.114 67.2844Z" fill="#FFCC07"/>
<path d="M152.25 133.02C152.25 133.02 157.33 160.88 158.14 170.56C160.35 196.93 170.97 305.1 170.97 305.1H156.67L135.65 207.31L125.27 305.1L109.87 305.61C109.87 305.61 102.75 196.84 102.9 170.33C102.96 160.41 105.7 132.59 105.7 132.59L110.89 119.91L107.28 100.2C107.21 99.8 107.46 99.41 107.86 99.32L111.41 98.47L115.5 119.32L138.07 118.8L145.72 100.34L148.99 101.7C149.43 101.88 149.63 102.4 149.42 102.83L141.32 119.71L152.27 133.02H152.25Z" fill="#C11718"/>
<path d="M135.27 127.18H118.42C115.764 127.18 113.61 129.333 113.61 131.99V142.42C113.61 145.076 115.764 147.23 118.42 147.23H135.27C137.927 147.23 140.08 145.076 140.08 142.42V131.99C140.08 129.333 137.927 127.18 135.27 127.18Z" fill="#E72B47"/>
</g>
<defs>
<clipPath id="clip0_1508_6627">
<rect width="172.13" height="319.57" fill="white"/>
</clipPath>
</defs>
</svg>
