<svg width="168" height="72" viewBox="0 0 168 72" fill="none" xmlns="http://www.w3.org/2000/svg">
<g id="Group 432">
<path id="Vector 27" d="M47 69V35.2977C47 33.8174 47.6559 32.4132 48.7912 31.4632L80.7912 4.68516C82.6482 3.13121 85.3518 3.13121 87.2088 4.68516L119.209 31.4632C120.344 32.4132 121 33.8174 121 35.2977V69" stroke="black" stroke-width="6" stroke-linecap="round"/>
<path id="Vector 28" d="M3 69V49.8144C3 48.3376 3.65286 46.9363 4.78354 45.9863L21.7835 31.7025C23.6432 30.14 26.3568 30.14 28.2165 31.7025L45.2165 45.9863C46.3471 46.9363 47 48.3376 47 49.8144V69" stroke="black" stroke-opacity="0.1" stroke-width="6" stroke-linecap="round"/>
<path id="Vector 29" d="M121 69V49.8144C121 48.3376 121.653 46.9363 122.784 45.9863L139.784 31.7025C141.643 30.14 144.357 30.14 146.216 31.7025L163.216 45.9863C164.347 46.9363 165 48.3376 165 49.8144V69" stroke="black" stroke-opacity="0.1" stroke-width="6" stroke-linecap="round"/>
</g>
</svg>
