<svg width="20" height="20" viewBox="0 0 20 20" fill="none" xmlns="http://www.w3.org/2000/svg">
<g clip-path="url(#clip0_122_1924)">
<path d="M9.99988 8.18164V12.0544H15.3817C15.1454 13.2998 14.4362 14.3544 13.3726 15.0635L16.618 17.5817C18.5089 15.8363 19.5998 13.2726 19.5998 10.2272C19.5998 9.51812 19.5362 8.83623 19.418 8.18175L9.99988 8.18164Z" fill="#4285F4"/>
<path d="M4.39555 11.9033L3.66358 12.4636L1.07263 14.4818C2.71808 17.7454 6.09056 20 9.99962 20C12.6996 20 14.9632 19.1091 16.6177 17.5818L13.3723 15.0636C12.4814 15.6636 11.345 16.0273 9.99962 16.0273C7.39963 16.0273 5.19061 14.2728 4.39964 11.9091L4.39555 11.9033Z" fill="#34A853"/>
<path d="M1.07265 5.51855C0.390868 6.86395 0 8.38216 0 10.0003C0 11.6185 0.390868 13.1367 1.07265 14.4821C1.07265 14.4911 4.39998 11.9003 4.39998 11.9003C4.19998 11.3003 4.08177 10.6639 4.08177 10.0002C4.08177 9.33648 4.19998 8.70016 4.39998 8.10016L1.07265 5.51855Z" fill="#FBBC05"/>
<path d="M9.99982 3.98182C11.4726 3.98182 12.7816 4.49089 13.8271 5.47272L16.6907 2.60912C14.9543 0.990971 12.6999 0 9.99982 0C6.09076 0 2.71808 2.24545 1.07263 5.51819L4.39986 8.10001C5.19072 5.73635 7.39984 3.98182 9.99982 3.98182Z" fill="#EA4335"/>
</g>
<defs>
<clipPath id="clip0_122_1924">
<rect width="20" height="20" fill="white"/>
</clipPath>
</defs>
</svg>
