<svg width="25" height="23" viewBox="0 0 25 23" fill="none" xmlns="http://www.w3.org/2000/svg">
<path d="M17.6336 1.96438C15.0553 -0.54477 9.8007 -0.825739 6.7881 2.14843C6.29401 2.62279 6.38331 3.16516 6.7192 3.49459C6.95627 3.73688 7.33115 3.84358 7.68699 3.73688C9.79073 3.08781 11.7367 3.03001 13.2875 4.15344L12.4579 6.32338C12.1415 7.16629 12.3097 7.75712 12.8727 8.31906L15.1541 10.5664C15.6088 11.0216 16.1124 11.1576 16.7742 11.002L18.3743 10.6437L19.1449 11.3995L19.0162 12.5038C18.9473 12.959 19.0062 13.24 19.4115 13.6374L20.1821 14.3639C20.6064 14.7804 21.1499 14.8191 21.5547 14.4217L24.7255 11.3319C25.1302 10.9345 25.0709 10.4019 24.6561 9.97552L23.8955 9.22954C23.5102 8.84187 23.2042 8.76452 22.7595 8.83254L21.624 8.96813L20.8434 8.23192L21.3176 6.56568C21.4658 6.0233 21.2781 5.51916 20.6852 4.94744L17.6336 1.96438ZM0.752474 18.2676C-0.204433 19.1008 -0.254295 19.9726 0.635071 20.8541L2.20529 22.3848C3.08423 23.2468 4.0026 23.1984 4.84256 22.2683L14.3541 11.7965L11.4303 8.93879L0.752474 18.2676Z" fill="black"/>
</svg>
