<svg width="24" height="24" viewBox="0 0 24 24" fill="none" xmlns="http://www.w3.org/2000/svg">
<g id="f7:hammer">
<path id="Vector" d="M13.3412 5.16203C11.6004 3.90544 9.52218 3.94917 7.51808 4.49328C8.71394 3.47616 10.2911 2.99065 11.8728 3.00014C13.6002 3.0105 15.2139 3.61019 16.2311 4.59585C16.2315 4.5962 16.2318 4.59655 16.2322 4.59689L19.1601 7.44869L19.1601 7.44871L19.165 7.45345C19.3888 7.66847 19.4685 7.80798 19.4958 7.87834C19.5135 7.92403 19.5169 7.95414 19.5015 8.012L19.0481 9.5994L18.8808 10.1854L19.3249 10.6027L20.0742 11.3069L20.4141 11.6263L20.8772 11.5712L21.9673 11.4415L21.9836 11.4396L21.9998 11.4371C22.058 11.4282 22.0908 11.4271 22.1064 11.4274C22.1236 11.438 22.164 11.4667 22.2317 11.5345L22.2316 11.5345L22.2407 11.5435L22.9358 12.2227L20.062 15.0129L20.0594 15.0105L19.3276 14.3231C19.2758 14.272 19.2472 14.2375 19.2324 14.2177C19.2333 14.1973 19.2362 14.163 19.2442 14.1103L19.2468 14.0934L19.2488 14.0764L19.3724 13.0201L19.4295 12.532L19.078 12.1886L18.3383 11.4657L17.9506 11.0869L17.4216 11.2049L15.8855 11.5477L15.8855 11.5476L15.8751 11.55C15.6761 11.5967 15.5687 11.5843 15.5101 11.5686C15.4553 11.5539 15.3734 11.5179 15.2542 11.399L15.2543 11.399L15.2484 11.3933L13.0608 9.24617C12.8805 9.06631 12.8331 8.95196 12.8175 8.88307C12.8022 8.81566 12.7916 8.67767 12.8944 8.40355L13.6896 6.33107L13.9653 5.61249L13.3412 5.16203ZM22.1177 11.4283C22.1176 11.4283 22.1163 11.4282 22.1141 11.4278C22.1167 11.428 22.1178 11.4282 22.1177 11.4283ZM22.0992 11.4233C22.0975 11.4226 22.0966 11.4222 22.0966 11.4221C22.0966 11.4221 22.0974 11.4224 22.0992 11.4233ZM23.0082 12.31C23.0081 12.31 23.0079 12.3094 23.0074 12.3083L23.0082 12.31ZM20.129 15.0672C20.129 15.0672 20.1283 15.067 20.1269 15.0663C20.1283 15.0668 20.129 15.0672 20.129 15.0672ZM19.2184 14.1969C19.2185 14.1969 19.2189 14.1977 19.2196 14.1991C19.2187 14.1976 19.2184 14.1969 19.2184 14.1969ZM1.37766 20.2288L1.37896 20.2276L10.9351 11.909L12.389 13.3249L3.90984 22.6264L3.90793 22.6285C3.6123 22.9547 3.42163 22.9964 3.35083 22.9997C3.28791 23.0026 3.11172 22.9853 2.81598 22.6963L2.8138 22.6942L1.30969 21.2333C0.99836 20.9249 0.998997 20.766 1.00019 20.7415C1.00183 20.7077 1.02647 20.5334 1.37766 20.2288Z" fill="black" stroke="black" stroke-width="2"/>
</g>
</svg>
