<svg width="24" height="24" viewBox="0 0 24 24" fill="none" xmlns="http://www.w3.org/2000/svg">
<g id="f7:hammer">
<path id="Vector" d="M7.10414 4.66925L7.10419 4.66931L7.11265 4.66099C8.37036 3.42383 10.1237 2.83964 11.8737 2.85014C13.6321 2.86068 15.2859 3.4707 16.3362 4.4888C16.3363 4.48894 16.3365 4.48907 16.3366 4.48921L19.2647 7.34124L19.2647 7.34125L19.2689 7.34528C19.5018 7.56906 19.5977 7.72624 19.6357 7.82411C19.6654 7.90086 19.6698 7.96363 19.6461 8.05201L19.1924 9.64059L19.0501 10.1387L19.4276 10.4934L20.177 11.1976L20.4658 11.4691L20.8595 11.4223L21.9496 11.2926L21.9634 11.2909L21.9772 11.2888C22.1149 11.2678 22.1491 11.282 22.151 11.2826L22.1512 11.2827C22.1567 11.2845 22.2122 11.3026 22.3379 11.4285L22.3378 11.4286L22.3456 11.4362L23.0673 12.1414C23.1063 12.1823 23.1273 12.2141 23.1385 12.2351L20.1004 15.1848L20.0981 15.187C20.0882 15.1967 20.0803 15.203 20.0747 15.207C20.0573 15.2005 20.0207 15.1821 19.9692 15.1317L19.963 15.1257L19.9567 15.1198L19.2236 14.4312C19.1153 14.3246 19.0883 14.2732 19.0837 14.2627C19.0842 14.2641 19.0843 14.265 19.0843 14.2651C19.0842 14.2652 19.084 14.2644 19.0836 14.2625C19.0818 14.2518 19.0778 14.2068 19.0959 14.0878L19.0981 14.0734L19.0998 14.0589L19.2234 13.0026L19.2719 12.5878L18.9732 12.2959L18.2334 11.573L17.9039 11.251L17.4543 11.3513L15.9181 11.6941L15.9181 11.694L15.9094 11.6961C15.6925 11.7469 15.5593 11.7371 15.4712 11.7134C15.3864 11.6907 15.2823 11.6389 15.1483 11.5052L15.1483 11.5052L15.1433 11.5003L12.9553 9.35283C12.7614 9.15954 12.6949 9.02101 12.6712 8.91616C12.6477 8.81256 12.6439 8.64388 12.7542 8.35035L13.5495 6.27734L13.7839 5.66654L13.2534 5.28365C11.4451 3.97833 9.25075 4.11074 7.13466 4.76042C7.11826 4.76502 7.10142 4.76503 7.08532 4.76085C7.06735 4.7562 7.05825 4.74845 7.0569 4.74708L7.05076 4.74084L7.04585 4.73604C7.05615 4.72075 7.07403 4.69805 7.10414 4.66925ZM7.03033 4.71735C7.03038 4.71734 7.03069 4.71787 7.03113 4.71895L7.03033 4.71735ZM1.27937 20.1155L1.28047 20.1145L10.9408 11.7052L12.5977 13.3187L4.02069 22.7275L4.01907 22.7293C3.7073 23.0732 3.48194 23.1438 3.35775 23.1495C3.24027 23.155 3.02581 23.1111 2.71115 22.8036L2.70929 22.8018L1.20455 21.3403C0.875874 21.0148 0.846348 20.817 0.850364 20.7342C0.854771 20.6435 0.911956 20.4342 1.27937 20.1155Z" stroke="black" stroke-width="1.7"/>
</g>
</svg>
