<svg width="25" height="23" viewBox="0 0 25 23" fill="none" xmlns="http://www.w3.org/2000/svg">
<path d="M0.593624 20.8918L2.15896 22.4261C3.02038 23.2516 4.00115 23.1835 4.873 22.2415L15.2435 11.1707C15.6693 11.4622 16.065 11.4524 16.5506 11.3554L17.6104 11.1418L18.3139 11.8315L18.2639 12.3459C18.195 12.8799 18.3533 13.2879 18.8585 13.7832L19.6904 14.5891C20.1955 15.0941 20.8691 15.1231 21.3542 14.6474L24.6528 11.4137C25.138 10.9375 25.1085 10.287 24.6029 9.78191L23.771 8.96626C23.2663 8.47099 22.8401 8.29611 22.305 8.37398L21.7704 8.43183L21.0969 7.77192L21.3942 6.63543C21.5326 6.07252 21.3842 5.61597 20.7601 5.01391L18.3139 2.62478C14.718 -0.880803 10.1127 -0.774007 6.963 2.34311C6.52685 2.77029 6.48736 3.35322 6.76466 3.78041C6.9925 4.14975 7.47767 4.37268 8.1412 4.20759C9.67659 3.82936 11.212 3.9455 12.7174 4.94582L12.0834 6.51929C11.8455 7.10177 11.8655 7.57746 12.1033 8.01443L0.781973 18.2313C-0.16885 19.0945 -0.277774 20.0366 0.594077 20.8914M8.53787 2.73158C11.2419 0.750065 14.6095 1.07045 17.0463 3.45957L19.7104 6.0525C19.9482 6.28567 19.9781 6.46989 19.9087 6.76136L19.5325 8.31524L21.1268 9.87892L22.0981 9.79126C22.3849 9.76233 22.4739 9.78147 22.7117 10.0048L23.3357 10.6265L20.5527 13.3649L19.9187 12.7437C19.6909 12.5203 19.6709 12.4327 19.7008 12.151L19.7898 11.1898L18.2054 9.63596L16.5611 9.94656C16.2738 10.0048 16.1254 10.0048 15.8776 9.76233L13.6782 7.59704C13.4404 7.36387 13.4104 7.2277 13.5393 6.9171L14.5106 4.64457C12.8858 3.12005 10.7363 2.27503 8.66631 2.92604C8.57735 2.95496 8.5179 2.93538 8.48794 2.89667C8.45844 2.84817 8.45844 2.79966 8.53787 2.73203M1.88166 20.1923C1.37652 19.6971 1.55488 19.3958 1.89119 19.0945L13.0147 9.03345L14.2528 10.2572L3.96121 21.1255C3.65396 21.4556 3.26773 21.5526 2.85154 21.1544L1.88166 20.1923Z" fill="black"/>
</svg>
