<svg width="20" height="16" viewBox="0 0 20 16" fill="none" xmlns="http://www.w3.org/2000/svg">
<path d="M8.88889 0C8.27431 0 7.77778 0.510714 7.77778 1.14286V4.78214C7.77778 4.98214 7.62153 5.14286 7.42708 5.14286C7.30208 5.14286 7.18403 5.075 7.12153 4.96071L5.45486 1.96429C2.88194 3.26786 1.11111 5.99286 1.11111 9.14286V11.4286H18.8889V9.05714C18.8576 5.94286 17.0938 3.25714 14.5451 1.96429L12.8785 4.96071C12.816 5.075 12.6979 5.14286 12.5729 5.14286C12.3785 5.14286 12.2222 4.98214 12.2222 4.78214V1.14286C12.2222 0.510714 11.7257 0 11.1111 0H8.88889ZM0.576389 12.5714C0.256944 12.5714 0 12.8357 0 13.1643C0 13.3321 0.0694445 13.4929 0.201389 13.5893C0.954861 14.1571 3.88194 16 10 16C16.1181 16 19.0451 14.1571 19.7986 13.5893C19.9306 13.4893 20 13.3321 20 13.1643C20 12.8357 19.7431 12.5714 19.4236 12.5714H0.576389Z" fill="black"/>
</svg>
