<svg width="24" height="22" viewBox="0 0 24 22" fill="none" xmlns="http://www.w3.org/2000/svg">
<path d="M2.00361 11.8245C-0.113618 13.2811 1.20298 15.9938 5.16167 19.6833C9.65412 20.3724 14.2088 20.4335 18.2921 19.6833C21.628 16.4124 23.9499 13.4294 21.5124 11.8245H2.00361Z" fill="black" stroke="#9EBDFF" stroke-width="2" stroke-miterlimit="10"/>
<path d="M20.943 10.5423C20.943 5.82351 16.8242 1.99438 11.7357 1.99438C6.64726 1.99438 2.52844 5.82351 2.52844 10.5423C2.52844 15.2611 6.64726 15.3832 11.7357 15.3832C16.8242 15.3832 20.943 15.2611 20.943 10.5423Z" fill="black" stroke="#9EBDFF" stroke-width="2" stroke-miterlimit="10"/>
<path d="M8.91553 4.29706L9.05786 1.36634C9.06676 1.16573 9.23578 1 9.44039 1H14.0307C14.2353 1 14.4043 1.157 14.4132 1.36634L14.5378 4.29706" fill="black"/>
<path d="M8.91553 4.29706L9.05786 1.36634C9.06676 1.16573 9.23578 1 9.44039 1H14.0307C14.2353 1 14.4043 1.157 14.4132 1.36634L14.5378 4.29706" stroke="#9EBDFF" stroke-width="2" stroke-linecap="round" stroke-linejoin="round"/>
</svg>
