<svg width="21" height="19" viewBox="0 0 21 19" fill="none" xmlns="http://www.w3.org/2000/svg">
<path d="M1.86153 10.292C0.0440409 11.5424 1.17424 13.871 4.57249 17.0382C8.42892 17.6298 12.3388 17.6822 15.844 17.0382C18.7077 14.2304 20.7008 11.6697 18.6084 10.292H1.86153Z" fill="white" stroke="#1D1D1B" stroke-width="2" stroke-miterlimit="10"/>
<path d="M18.1196 9.19129C18.1196 5.14054 14.5839 1.85352 10.2158 1.85352C5.84771 1.85352 2.31201 5.14054 2.31201 9.19129C2.31201 13.242 5.84771 13.3469 10.2158 13.3469C14.5839 13.3469 18.1196 13.242 18.1196 9.19129Z" fill="white" stroke="#1D1D1B" stroke-width="2" stroke-miterlimit="10"/>
<path d="M7.79492 3.83028L7.91711 1.31448C7.92474 1.14226 8.06984 1 8.24548 1H12.1859C12.3616 1 12.5066 1.13478 12.5143 1.31448L12.6212 3.83028" fill="white"/>
<path d="M7.79492 3.83028L7.91711 1.31448C7.92474 1.14226 8.06984 1 8.24548 1H12.1859C12.3616 1 12.5066 1.13478 12.5143 1.31448L12.6212 3.83028" stroke="#1D1D1B" stroke-width="2" stroke-linecap="round" stroke-linejoin="round"/>
</svg>
