<svg width="20" height="16" viewBox="0 0 20 16" fill="none" xmlns="http://www.w3.org/2000/svg">
<path d="M14.9176 3.3519C16.686 4.5944 17.8634 6.68085 17.8889 9.06239V10.4286H2.11111V9.14286C2.11111 6.72766 3.2942 4.60725 5.08221 3.35157L6.2464 5.44461C6.48639 5.87993 6.94119 6.14286 7.42708 6.14286C8.20018 6.14286 8.77778 5.50768 8.77778 4.78214V1.14286C8.77778 1.03626 8.85296 1 8.88889 1H11.1111C11.147 1 11.2222 1.03626 11.2222 1.14286V4.78214C11.2222 5.50768 11.7998 6.14286 12.5729 6.14286C13.0587 6.14286 13.5135 5.88 13.7535 5.44481L14.9176 3.3519ZM10 15C6.09335 15 3.58276 14.2233 2.16372 13.5714H17.8363C16.4172 14.2233 13.9066 15 10 15Z" stroke="black" stroke-width="2"/>
</svg>
