<svg width="46" height="46" viewBox="0 0 46 46" fill="none" xmlns="http://www.w3.org/2000/svg">
<g id="solar:chat-round-money-linear">
<g id="Group">
<path id="Vector" d="M23.0002 42.1666C33.5859 42.1666 42.1668 33.5857 42.1668 23C42.1668 12.4142 33.5859 3.83331 23.0002 3.83331C12.4144 3.83331 3.8335 12.4142 3.8335 23C3.8335 26.0666 4.55416 28.9646 5.83258 31.5349C6.17375 32.2172 6.28683 32.9973 6.08941 33.7352L4.949 38.0017C4.83605 38.424 4.83615 38.8685 4.94929 39.2906C5.06244 39.7128 5.28464 40.0978 5.5936 40.4069C5.90256 40.7161 6.2874 40.9385 6.70951 41.052C7.13161 41.1654 7.57612 41.1657 7.99841 41.0531L12.2649 39.9107C13.0055 39.7243 13.7887 39.815 14.4672 40.1656C17.1178 41.4855 20.0391 42.1706 23.0002 42.1666Z" stroke="#FF0033" stroke-width="2"/>
<path id="Vector_2" d="M23.0003 29.3882C25.1182 29.3882 26.8337 27.9584 26.8337 26.1951C26.8337 24.4317 25.1182 23 23.0003 23C20.8824 23 19.167 21.5701 19.167 19.8049C19.167 18.0416 20.8824 16.6117 23.0003 16.6117M23.0003 29.3882C20.8824 29.3882 19.167 27.9584 19.167 26.1951M23.0003 29.3882V30.6666M23.0003 16.6117V15.3333M23.0003 16.6117C25.1182 16.6117 26.8337 18.0416 26.8337 19.8049" stroke="#FF0033" stroke-width="2" stroke-linecap="round"/>
</g>
</g>
</svg>
