<svg width="21" height="20" viewBox="0 0 21 20" fill="none" xmlns="http://www.w3.org/2000/svg">
<path fill-rule="evenodd" clip-rule="evenodd" d="M11.707 0.293C11.5195 0.105529 11.2652 0.000213623 11 0.000213623C10.7349 0.000213623 10.4805 0.105529 10.293 0.293L3.29302 7.293L1.29302 9.293C1.19751 9.38525 1.12133 9.49559 1.06892 9.6176C1.01651 9.7396 0.988924 9.87082 0.98777 10.0036C0.986616 10.1364 1.01192 10.2681 1.0622 10.391C1.11248 10.5139 1.18673 10.6255 1.28063 10.7194C1.37452 10.8133 1.48617 10.8875 1.60907 10.9378C1.73196 10.9881 1.86364 11.0134 1.99642 11.0123C2.1292 11.0111 2.26042 10.9835 2.38242 10.9311C2.50443 10.8787 2.61477 10.8025 2.70702 10.707L3.00002 10.414V17C3.00002 17.7956 3.31609 18.5587 3.8787 19.1213C4.44131 19.6839 5.20437 20 6.00002 20H16C16.7957 20 17.5587 19.6839 18.1213 19.1213C18.684 18.5587 19 17.7956 19 17V10.414L19.293 10.707C19.4816 10.8892 19.7342 10.99 19.9964 10.9877C20.2586 10.9854 20.5094 10.8802 20.6948 10.6948C20.8802 10.5094 20.9854 10.2586 20.9877 9.9964C20.99 9.7342 20.8892 9.4816 20.707 9.293L11.707 0.293Z" fill="black"/>
</svg>
