<svg width="21" height="20" viewBox="0 0 21 20" fill="none" xmlns="http://www.w3.org/2000/svg">
<path d="M19 8.00003C19 7.73481 18.8947 7.48046 18.7071 7.29292C18.5196 7.10539 18.2652 7.00003 18 7.00003C17.7348 7.00003 17.4804 7.10539 17.2929 7.29292C17.1054 7.48046 17 7.73481 17 8.00003H19ZM5.00002 8.00003C5.00002 7.73481 4.89466 7.48046 4.70713 7.29292C4.51959 7.10539 4.26524 7.00003 4.00002 7.00003C3.7348 7.00003 3.48045 7.10539 3.29291 7.29292C3.10538 7.48046 3.00002 7.73481 3.00002 8.00003H5.00002ZM19.293 10.707C19.4816 10.8892 19.7342 10.99 19.9964 10.9877C20.2586 10.9854 20.5094 10.8803 20.6948 10.6948C20.8802 10.5094 20.9854 10.2586 20.9877 9.99643C20.99 9.73423 20.8892 9.48163 20.707 9.29303L19.293 10.707ZM11 1.00003L11.707 0.293031C11.5195 0.105559 11.2652 0.000244141 11 0.000244141C10.7349 0.000244141 10.4805 0.105559 10.293 0.293031L11 1.00003ZM1.29302 9.29303C1.19751 9.38528 1.12133 9.49562 1.06892 9.61763C1.01651 9.73963 0.988924 9.87085 0.98777 10.0036C0.986616 10.1364 1.01192 10.2681 1.0622 10.391C1.11248 10.5139 1.18673 10.6255 1.28063 10.7194C1.37452 10.8133 1.48617 10.8876 1.60907 10.9379C1.73196 10.9881 1.86364 11.0134 1.99642 11.0123C2.1292 11.0111 2.26042 10.9835 2.38242 10.9311C2.50443 10.8787 2.61477 10.8025 2.70702 10.707L1.29302 9.29303ZM6.00002 20H16V18H6.00002V20ZM19 17V8.00003H17V17H19ZM5.00002 17V8.00003H3.00002V17H5.00002ZM20.707 9.29303L11.707 0.293031L10.293 1.70703L19.293 10.707L20.707 9.29303ZM10.293 0.293031L1.29302 9.29303L2.70702 10.707L11.707 1.70703L10.293 0.293031ZM16 20C16.7957 20 17.5587 19.684 18.1213 19.1214C18.684 18.5587 19 17.7957 19 17H17C17 17.2652 16.8947 17.5196 16.7071 17.7071C16.5196 17.8947 16.2652 18 16 18V20ZM6.00002 18C5.7348 18 5.48045 17.8947 5.29291 17.7071C5.10538 17.5196 5.00002 17.2652 5.00002 17H3.00002C3.00002 17.7957 3.31609 18.5587 3.8787 19.1214C4.44131 19.684 5.20437 20 6.00002 20V18Z" fill="black"/>
</svg>
