<?xml version="1.0" encoding="UTF-8"?>
<svg id="Laag_2" data-name="Laag 2" xmlns="http://www.w3.org/2000/svg" viewBox="0 0 344.17 326.43">
  <defs>
    <style>
      .cls-1 {
        fill: #e1eff5;
      }

      .cls-1, .cls-2, .cls-3, .cls-4, .cls-5, .cls-6, .cls-7, .cls-8, .cls-9, .cls-10, .cls-11 {
        stroke-width: 0px;
      }

      .cls-2 {
        fill: #a0b9e1;
      }

      .cls-3 {
        fill: #8ad1eb;
      }

      .cls-4 {
        fill: #cd896a;
      }

      .cls-5 {
        fill: #a7c82d;
      }

      .cls-6 {
        fill: #76574e;
      }

      .cls-7 {
        fill: #b8c4e5;
      }

      .cls-8 {
        fill: #3668b1;
      }

      .cls-9 {
        fill: #f29272;
      }

      .cls-10 {
        fill: #57b031;
      }

      .cls-11 {
        fill: #a15a3a;
      }
    </style>
  </defs>
  <g id="login">
    <path class="cls-4" d="M151.75,56.77l-1.03-12.33s8.71.64,10.73-1.15c10.99-9.71-.38-31.43-.38-31.43l-16.68-8.85c-1.07-.57-2.39.02-2.69,1.19l-2.05,8.05c-1.85,7.26-8.28,12.42-15.77,12.65h0s.18,6.48.18,6.48c.13,4.68,2.14,9.12,5.57,12.3h0s-1.46,14.25-1.46,14.25l10.7-.52,12.87-.63Z"/>
    <path class="cls-4" d="M90.55,86.25s-18.28,45.92-13.96,60.94c1.06,3.7,10.89,10.89,10.89,10.89l14.98-11.23-11.91-60.6Z"/>
    <path class="cls-5" d="M129.58,53.24c-.82-.45-1.76-.55-2.64-.28-5.7,1.74-27.14,8.59-32.61,14.9-3.74,4.32-7.18,22.47-7.18,22.47l.31,67.74,95.46-.68,4.99-67.06s-1.72-19.1-5.3-23.83c-4.72-6.23-24.47-13.28-30.04-15.17-.92-.31-1.91-.17-2.72.39-2.41,1.66-7.05,3.9-9.67,4.05s-8.24-1.25-10.61-2.54Z"/>
    <rect class="cls-8" x="56.17" y="190.25" width="186.89" height="130.21" rx="10.8" ry="10.8"/>
    <polygon class="cls-7" points="156.77 180.54 143.49 306.67 157.79 307.69 198.64 183.1 156.77 180.54"/>
    <path class="cls-2" d="M88.34,165.22s-1.53,19.91,15.83,30.13c12.12,7.13,50.15-4.47,63.06-8.73,2.62-.87,5.5.01,7.2,2.19l71.18,91.31,12.26-7.15-47.49-101.11-122.04-6.64Z"/>
    <g>
      <rect class="cls-9" y="157.05" width="344.17" height="15.32"/>
      <rect class="cls-9" x="26.55" y="172.39" width="13.28" height="151.15"/>
      <rect class="cls-9" x="305.36" y="169.84" width="13.28" height="151.15"/>
    </g>
    <polygon class="cls-6" points="245.62 280.12 251.23 296.46 288 277.05 257.87 272.97 245.62 280.12"/>
    <polygon class="cls-6" points="143.27 305.34 138.82 322.03 180.16 326.43 157.43 306.24 143.27 305.34"/>
    <rect class="cls-1" x="83.74" y="89.9" width="112.98" height="67.09" rx="1.23" ry="1.23"/>
    <path class="cls-3" d="M230.46,124.12h18.13c1.05,0,1.89.85,1.89,1.89v26.21c0,2.52-2.05,4.57-4.57,4.57h-12.81c-2.52,0-4.57-2.05-4.57-4.57v-26.17c0-1.07.87-1.94,1.94-1.94Z"/>
    <path class="cls-11" d="M161.07,11.86s-12.39,5.62-22.17,5.37c-3.06,11.23,2.55,6.64-8.85,26.04-1.48,2.52-17.36-13.79-8.51-36.09,1.25-3.14,6.14-3.1,6.98-3.4,3.89-1.43,7.95-4.1,12.09-3.74,27.91-.43,20.47,11.83,20.47,11.83Z"/>
    <path class="cls-10" d="M298.24,105.17c-.17-.58.59-.96.95-.47l6.83,9.17,8.23,11.06c.2.27.11.66-.19.81l-4.01,1.99-4.01,1.99c-.3.15-.67,0-.76-.33l-3.85-13.24-3.19-10.98Z"/>
    <path class="cls-10" d="M338.79,95.62c.51-.72,1.26-.32.94.5l-6.07,15.62-7.31,18.84c-.18.46-.62.74-.91.58l-3.94-2.11-3.94-2.11c-.3-.16-.31-.68-.02-1.08l11.63-16.52,9.64-13.71Z"/>
    <path class="cls-10" d="M312.8,97.76c.02-.83.87-.92,1.06-.11l3.63,15.27,4.37,18.41c.11.45-.1.9-.44.93l-4.45.46-4.45.46c-.34.03-.63-.36-.62-.82l.49-18.92.41-15.69Z"/>
    <rect class="cls-11" x="301.56" y="121.39" width="28.21" height="35.32" rx="6" ry="6"/>
  </g>
</svg>