<svg width="46" height="46" viewBox="0 0 46 46" fill="none" xmlns="http://www.w3.org/2000/svg">
<g id="flat-color-icons:high-priority">
<g id="Group 358">
<path id="Vector" d="M21.046 42.2493L21.035 42.2375L21.0236 42.2261L3.77361 24.9761C2.6308 23.8333 2.6308 22.0707 3.77361 20.9278L21.0236 3.67785C22.1664 2.53504 23.9291 2.53504 25.0719 3.67785L42.3219 20.9278C43.4647 22.0707 43.4647 23.8333 42.3219 24.9761L25.0719 42.2261C23.916 43.382 22.0762 43.3481 21.046 42.2493Z" stroke="#33CC00" stroke-width="2"/>
<path id="Vector_2" d="M20.6997 31.3375C20.6997 31.05 20.7955 30.7625 20.8914 30.475C20.9872 30.1875 21.1789 29.9958 21.3705 29.8041C21.5622 29.6125 21.8497 29.4208 22.1372 29.325C22.4247 29.2291 22.7122 29.1333 23.0955 29.1333C23.4789 29.1333 23.7664 29.2291 24.0539 29.325C24.3414 29.4208 24.6289 29.6125 24.8205 29.8041C25.0122 29.9958 25.2039 30.1875 25.2997 30.475C25.3955 30.7625 25.4914 31.05 25.4914 31.3375C25.4914 31.625 25.3955 31.9125 25.2997 32.2C25.2039 32.4875 25.0122 32.6791 24.8205 32.8708C24.6289 33.0625 24.3414 33.2541 24.0539 33.35C23.7664 33.4458 23.4789 33.5416 23.0955 33.5416C22.7122 33.5416 22.4247 33.4458 22.1372 33.35C21.8497 33.2541 21.658 33.0625 21.3705 32.8708C21.1789 32.6791 20.9872 32.4875 20.8914 32.2C20.7955 31.9125 20.6997 31.7208 20.6997 31.3375ZM24.7247 26.9291H21.2747L20.7955 12.4583H25.2039L24.7247 26.9291Z" fill="#33CC00"/>
</g>
</g>
</svg>
