<svg width="46" height="46" viewBox="0 0 46 46" fill="none" xmlns="http://www.w3.org/2000/svg">
<path d="M21.0462 42.2494L21.0352 42.2376L21.0238 42.2262L3.77378 24.9762C2.63097 23.8334 2.63097 22.0707 3.77378 20.9279L21.0238 3.67791C22.1666 2.5351 23.9293 2.5351 25.0721 3.67791L42.3221 20.9279C43.4649 22.0707 43.4649 23.8334 42.3221 24.9762L25.0721 42.2262C23.9162 43.3821 22.0764 43.3482 21.0462 42.2494Z" stroke="#FF9900" stroke-width="2"/>
<path d="M20.7 31.3377C20.7 31.0502 20.7958 30.7627 20.8916 30.4752C20.9875 30.1877 21.1791 29.996 21.3708 29.8043C21.5625 29.6127 21.85 29.421 22.1375 29.3252C22.425 29.2293 22.7125 29.1335 23.0958 29.1335C23.4791 29.1335 23.7666 29.2293 24.0541 29.3252C24.3416 29.421 24.6291 29.6127 24.8208 29.8043C25.0125 29.996 25.2041 30.1877 25.3 30.4752C25.3958 30.7627 25.4916 31.0502 25.4916 31.3377C25.4916 31.6252 25.3958 31.9127 25.3 32.2002C25.2041 32.4877 25.0125 32.6793 24.8208 32.871C24.6291 33.0627 24.3416 33.2543 24.0541 33.3502C23.7666 33.446 23.4791 33.5418 23.0958 33.5418C22.7125 33.5418 22.425 33.446 22.1375 33.3502C21.85 33.2543 21.6583 33.0627 21.3708 32.871C21.1791 32.6793 20.9875 32.4877 20.8916 32.2002C20.7958 31.9127 20.7 31.721 20.7 31.3377ZM24.725 26.9293H21.275L20.7958 12.4585H25.2041L24.725 26.9293Z" fill="#FF9900"/>
</svg>
