<svg width="12" height="12" viewBox="0 0 12 12" fill="none" xmlns="http://www.w3.org/2000/svg">
<g id="zondicons:minus-solid" clip-path="url(#clip0_1227_1174)">
<path id="Vector" d="M6 12C4.4087 12 2.88258 11.3679 1.75736 10.2426C0.632141 9.11742 0 7.5913 0 6C0 4.4087 0.632141 2.88258 1.75736 1.75736C2.88258 0.632141 4.4087 0 6 0C7.5913 0 9.11742 0.632141 10.2426 1.75736C11.3679 2.88258 12 4.4087 12 6C12 7.5913 11.3679 9.11742 10.2426 10.2426C9.11742 11.3679 7.5913 12 6 12ZM9 5.4H3V6.6H9V5.4Z" fill="#0072FF"/>
</g>
<defs>
<clipPath id="clip0_1227_1174">
<rect width="12" height="12" fill="white"/>
</clipPath>
</defs>
</svg>
