<svg width="58" height="58" viewBox="0 0 58 58" fill="none" xmlns="http://www.w3.org/2000/svg">
<path d="M29 30.209C26.7567 30.209 24.6053 31.1001 23.019 32.6864C21.4328 34.2726 20.5417 36.424 20.5417 38.6673C20.5417 40.9106 21.4328 43.062 23.019 44.6483C24.6053 46.2345 26.7567 47.1257 29 47.1257C31.2433 47.1257 33.3947 46.2345 34.9809 44.6483C36.5672 43.062 37.4583 40.9106 37.4583 38.6673C37.4583 36.424 36.5672 34.2726 34.9809 32.6864C33.3947 31.1001 31.2433 30.209 29 30.209ZM25.375 38.6673C25.375 37.7059 25.7569 36.7839 26.4367 36.1041C27.1165 35.4242 28.0386 35.0423 29 35.0423C29.9614 35.0423 30.8834 35.4242 31.5633 36.1041C32.2431 36.7839 32.625 37.7059 32.625 38.6673C32.625 39.6287 32.2431 40.5508 31.5633 41.2306C30.8834 41.9104 29.9614 42.2923 29 42.2923C28.0386 42.2923 27.1165 41.9104 26.4367 41.2306C25.7569 40.5508 25.375 39.6287 25.375 38.6673Z" fill="#0072FF"/>
<path d="M42.3545 12.3629L34.6719 1.5918L6.4235 24.1586L4.8575 24.1417V24.1659H3.625V53.1659H54.375V24.1659H52.0502L47.4247 10.635L42.3545 12.3629ZM46.9437 24.1659H22.7094L40.7595 18.013L44.4377 16.8361L46.9437 24.1659ZM37.5792 13.9917L18.9467 20.3427L33.7028 8.55421L37.5792 13.9917ZM8.45833 43.9076V33.4193C9.47791 33.058 10.404 32.4737 11.1691 31.709C11.9342 30.9444 12.519 30.0186 12.8808 28.9992H45.1192C45.4809 30.019 46.0656 30.9451 46.8307 31.7102C47.5957 32.4753 48.5219 33.06 49.5417 33.4217V43.91C48.5219 44.2717 47.5957 44.8565 46.8307 45.6215C46.0656 46.3866 45.4809 47.3128 45.1192 48.3325H12.8857C12.5236 47.3119 11.9382 46.385 11.1723 45.6195C10.4063 44.854 9.47914 44.2691 8.45833 43.9076Z" fill="#0072FF"/>
</svg>
