<svg width="23" height="23" viewBox="0 0 23 23" fill="none" xmlns="http://www.w3.org/2000/svg">
<g id="Property 1=selected" clip-path="url(#clip0_293_6113)">
<path id="Vector" d="M5.95987 0.209876C6.02675 0.143174 6.10611 0.090305 6.19342 0.0542932C6.28074 0.0182814 6.3743 -0.00016754 6.46875 1.1464e-06H16.5312C16.7219 1.1464e-06 16.9047 0.0757264 17.0395 0.210518C17.1743 0.34531 17.25 0.528127 17.25 0.718751C17.25 1.69625 16.7584 2.40638 16.3214 2.84481C16.1403 3.0245 15.962 3.16681 15.8125 3.27319V9.64275L15.9246 9.71175C16.2164 9.89431 16.6089 10.1631 17.0042 10.5096C17.7675 11.1766 18.6875 12.2576 18.6875 13.6563C18.6875 13.8469 18.6118 14.0297 18.477 14.1645C18.3422 14.2993 18.1594 14.375 17.9688 14.375H12.2188V20.8438C12.2188 21.2405 11.8967 23 11.5 23C11.1033 23 10.7812 21.2405 10.7812 20.8438V14.375H5.03125C4.84063 14.375 4.65781 14.2993 4.52302 14.1645C4.38823 14.0297 4.3125 13.8469 4.3125 13.6563C4.3125 12.2576 5.2325 11.1766 5.99438 10.5096C6.36626 10.1867 6.76546 9.89662 7.1875 9.64275V3.27319C7.00622 3.14484 6.83601 3.00155 6.67862 2.84481C6.24162 2.40638 5.75 1.69481 5.75 0.718751C5.74983 0.6243 5.76828 0.530742 5.80429 0.443426C5.8403 0.35611 5.89317 0.276747 5.95987 0.209876Z" fill="black"/>
</g>
<defs>
<clipPath id="clip0_293_6113">
<rect width="23" height="23" fill="white"/>
</clipPath>
</defs>
</svg>
