<?xml version="1.0" encoding="UTF-8"?>
<svg id="Laag_2" data-name="Laag 2" xmlns="http://www.w3.org/2000/svg" viewBox="0 0 437.76 298.19">
  <defs>
    <style>
      .cls-1 {
        fill: #e1eff5;
      }

      .cls-1, .cls-2, .cls-3, .cls-4, .cls-5, .cls-6, .cls-7, .cls-8, .cls-9, .cls-10 {
        stroke-width: 0px;
      }

      .cls-2 {
        fill: #0e0e0e;
      }

      .cls-3 {
        fill: #262626;
      }

      .cls-11 {
        stroke: #3768b1;
      }

      .cls-11, .cls-12, .cls-13 {
        fill: none;
        stroke-miterlimit: 10;
      }

      .cls-4 {
        fill: #755e44;
      }

      .cls-12 {
        stroke: #eaf3e6;
        stroke-width: 3px;
      }

      .cls-5 {
        fill: #7ab929;
      }

      .cls-6 {
        fill: #a7c82d;
      }

      .cls-7 {
        fill: #3d3d3d;
      }

      .cls-8 {
        fill: #5579bb;
      }

      .cls-13 {
        stroke: #262626;
      }

      .cls-9 {
        fill: #ebebb1;
      }

      .cls-10 {
        fill: #f49f75;
      }
    </style>
  </defs>
  <g id="Laag_10" data-name="Laag 10">
    <g>
      <polygon class="cls-4" points="304.16 187.2 286.92 295.5 292.85 295.5 316.55 187.2 304.16 187.2"/>
      <polygon class="cls-4" points="338.64 186.66 341.34 296.58 348.88 296.58 353.73 183.97 338.64 186.66"/>
      <polygon class="cls-4" points="382.83 182.89 408.69 298.19 418.39 298.19 396.84 173.73 382.83 182.89"/>
      <path class="cls-8" d="M334.33,65.43s75.39-9.11,92.67,8.08c21.49,21.37,7.63,86.48-14.01,104.53-20.06,16.73-76.91,15.82-107.34,13.98-11.19-.68-19.97-9.86-20.18-21.07l-.71-37.09,49.57-68.43Z"/>
    </g>
    <g>
      <path class="cls-10" d="M326.53,67.24l-8.77-23.92s-7.2,3.65-9.56,2.85c-12.84-4.36-10.9-26.95-10.9-26.95l11.07-13.51c.71-.87,2.04-.84,2.72.06l4.62,6.13c4.17,5.53,11.5,7.64,17.97,5.16h0s2.16,5.59,2.16,5.59c1.56,4.04,1.43,8.54-.36,12.48h0s13.15,25.92,13.15,25.92l-22.09,6.18Z"/>
      <path class="cls-9" d="M297.3,19.23s12.57.37,20.83-3.34c6.63,8.49.19,6.57,16.85,19.05,2.16,1.62,9.88-17.96-5.63-33.82-2.18-2.23-6.34-.45-7.17-.41-3.83.17-8.25-.66-11.64,1.12-23.96,9.61-13.24,17.4-13.24,17.4Z"/>
      <polygon class="cls-2" points="272.17 273.99 276.08 295.14 224.35 296.59 254.52 273.74 272.17 273.99"/>
      <polygon class="cls-2" points="334.67 275.1 338.58 296.25 286.85 297.7 317.02 274.85 334.67 275.1"/>
      <g>
        <path class="cls-7" d="M245.63,276.61l32.87-.54,7.7-92.96c.22-2.7,2.2-4.94,4.85-5.5l28.93-6.07,9.16-26.94s-57.14,3.48-68.97,16.7c-19.36,21.66-14.55,115.3-14.55,115.3Z"/>
        <path class="cls-3" d="M388.96,132.21l-59.81,3.77s-17.18,13.45-19.94,19.94c-11.8,27.78-2.16,120.69-2.16,120.69h32.33s-1.85-70.18-2.55-101.55c-.06-2.8,2.6-4.88,5.29-4.09,16.46,4.85,39.69,2.18,46.29-7.51,4.4-6.46.54-31.25.54-31.25Z"/>
      </g>
      <path class="cls-5" d="M321.81,53.11s-20.92,1.81-25.86,6.26c-8.67,7.83-15.56,44.05-15.56,44.05l24.25-.61.2-20.2,5.25,22.63,10.71,30.71,67.88-1.91c2.14-.06,3.83-1.83,3.77-3.97-.35-13.91-2.26-61.54-12.05-78.37-4.66-8.02-36.98-3.03-36.98-3.03l-4.49,4.96c-2.96,3.28-7.74,4.18-11.69,2.2l-5.44-2.72Z"/>
      <path class="cls-6" d="M358.78,70.08c-3.5,11.19-20.81,42.03-20.81,42.03l7.27,11.92s32.58-32.84,38.19-46.88c2.38-5.95,1.2-20.64-3.03-25.46-5.15-5.86-19.4-4.24-19.4-4.24,0,0-.57,17.37-2.22,22.63Z"/>
      <path class="cls-6" d="M383.43,77.15c4.24-8.59,1.2-20.64-3.03-25.46-5.15-5.86-19.4-4.24-19.4-4.24"/>
      <path class="cls-1" d="M344.74,145.81l-74.82,8.19c-3.23.35-6.21-1.74-6.98-4.89l-9.06-37.12c-.94-3.84,1.76-7.61,5.69-7.97l74.85-6.89c3.17-.29,6.08,1.77,6.86,4.86l9.03,35.83c.96,3.8-1.66,7.58-5.56,8Z"/>
    </g>
    <g>
      <rect class="cls-11" x=".5" y="2.7" width="252.56" height="30.31" rx="7.91" ry="7.91"/>
      <line class="cls-13" x1="13.7" y1="17.86" x2="184.63" y2="17.86"/>
      <rect class="cls-11" x=".9" y="48.93" width="252.56" height="30.31" rx="7.91" ry="7.91"/>
      <ellipse class="cls-3" cx="21.92" cy="64.08" rx="5.12" ry="4.66"/>
      <ellipse class="cls-3" cx="40.35" cy="64.08" rx="5.12" ry="4.66"/>
      <ellipse class="cls-3" cx="58.78" cy="64.08" rx="5.12" ry="4.66"/>
      <ellipse class="cls-3" cx="77.22" cy="64.08" rx="5.12" ry="4.66"/>
      <ellipse class="cls-3" cx="95.65" cy="64.08" rx="5.12" ry="4.66"/>
      <ellipse class="cls-3" cx="114.08" cy="64.08" rx="5.12" ry="4.66"/>
      <ellipse class="cls-3" cx="132.51" cy="64.08" rx="5.12" ry="4.66"/>
      <ellipse class="cls-3" cx="150.94" cy="64.08" rx="5.12" ry="4.66"/>
    </g>
    <path class="cls-6" d="M230.62,26.37l2.89,24.35c.16,1.32.83,2.51,1.87,3.33l12.67,9.99c1.71,1.35,4.09,1.43,5.89.22l14.14-9.57c1.15-.78,1.93-2.01,2.14-3.38l3.63-23.63c.37-2.43-1.08-4.77-3.42-5.52l-18.04-5.76c-.96-.31-2-.32-2.97-.02l-15.29,4.62c-2.32.7-3.8,2.97-3.52,5.37Z"/>
    <polyline class="cls-12" points="241.38 36.71 251.29 46.06 267.48 30.85"/>
  </g>
</svg>