<svg width="353" height="367" viewBox="0 0 353 367" fill="none" xmlns="http://www.w3.org/2000/svg">
<g clip-path="url(#clip0_1305_5362)">
<path d="M349.406 54.2818C349.406 67.2684 344.057 77.798 337.45 77.798C330.843 77.798 325.494 67.2684 325.494 54.2818C325.494 41.2953 330.855 31.044 337.45 30.7656C350.689 29.4827 349.406 41.2953 349.406 54.2818Z" fill="#B4B4B4"/>
<path d="M336.301 73.6955L331.424 110.707H343.501L338.612 72.9209L336.301 73.6955Z" fill="#B4B4B4"/>
<path d="M341.056 77.798C347.659 77.798 353.012 67.2694 353.012 54.2818C353.012 41.2942 347.659 30.7656 341.056 30.7656C334.453 30.7656 329.1 41.2942 329.1 54.2818C329.1 67.2694 334.453 77.798 341.056 77.798Z" fill="#4E4D4D"/>
<path d="M339.895 73.6955L335.018 110.707H347.095L342.206 72.9209L339.895 73.6955Z" fill="#4E4D4D"/>
<path d="M176.312 41.1016L351.233 42.6265C351.233 42.6265 355.965 54.1849 349.781 70.3546C306.689 71.0202 176.76 73.816 176.76 73.816L176.312 41.1016Z" fill="#FFCC07"/>
<path d="M122.027 123.717C156.185 123.717 183.876 96.0221 183.876 61.8586C183.876 27.695 156.185 0 122.027 0C87.8691 0 60.1786 27.695 60.1786 61.8586C60.1786 96.0221 87.8691 123.717 122.027 123.717Z" fill="#FFCC07"/>
<path d="M93.7227 75.3655C101.181 75.3655 107.228 69.3182 107.228 61.8585C107.228 54.3988 101.181 48.3516 93.7227 48.3516C86.2642 48.3516 80.218 54.3988 80.218 61.8585C80.218 69.3182 86.2642 75.3655 93.7227 75.3655Z" fill="#FEFEFE"/>
<path d="M49.9048 104.509L50.9818 92.963C50.9818 92.963 59.1863 93.5681 61.0862 91.8858C71.4326 82.748 60.7231 62.2939 60.7231 62.2939L43.0435 52.9141L40.5628 62.657C38.8202 69.4952 32.7697 74.3485 25.7148 74.5664L25.8842 80.6663C26.0052 85.0718 27.893 89.2473 31.124 92.2489V104.521H49.8927L49.9048 104.509Z" fill="#F49F75"/>
<path d="M23.6939 79.5046C23.6939 79.5046 49.7112 78.6573 54.3338 74.8812C59.5251 70.6572 58.8838 53.6888 63.5911 44.6236C66.1928 39.613 72.0376 34.1908 70.1861 30.8504C68.7824 28.333 63.7968 26.6749 61.6428 28.5871C59.5977 30.4026 53.7408 38.0759 53.7408 38.0759C53.7408 38.0759 52.2887 60.3576 47.5088 63.9401C43.6848 66.8085 23.5366 66.0702 23.5366 66.0702L23.6818 79.4925L23.6939 79.5046Z" fill="#F49F75"/>
<path d="M66.701 130.302C66.701 130.302 83.461 137.406 89.4147 137.854C96.0824 138.35 110.011 135.7 119.655 132.347C124.98 130.495 132.966 130.556 133.898 126.864C134.612 124.069 132.119 119.445 129.239 119.36C126.504 119.276 117.501 124.081 117.501 124.081C117.501 124.081 99.7127 127.687 93.7832 127.01C89.0275 126.465 75.8132 120.462 75.8132 120.462L66.701 130.326V130.302Z" fill="#F49F75"/>
<path d="M91.7744 357.886C91.7744 357.886 96.8811 359.266 97.6798 360.694C99.0351 363.163 97.0505 364.7 96.1308 365.245C95.8767 365.402 95.5863 365.475 95.2837 365.475H75.3775C74.0464 365.475 72.8121 364.749 72.1707 363.587L67.5965 355.357L68.1532 365.475H64.777L64.7286 346.945C64.7286 346.376 65.4667 346.146 65.7935 346.618L73.7439 346.279C76.5876 349.874 91.7502 357.898 91.7502 357.898L91.7744 357.886Z" fill="#826760"/>
<path d="M42.7168 359.411C42.7168 359.411 47.8234 360.791 48.6221 362.219C49.9774 364.688 47.9928 366.226 47.0731 366.77C46.819 366.927 46.5286 367 46.2261 367H26.3198C24.9887 367 23.7544 366.274 23.1131 365.112L18.5388 356.882L19.0955 367H15.7193L15.6709 348.47C15.6709 347.902 16.4091 347.672 16.7358 348.144L24.6862 347.805C27.5299 351.399 42.6926 359.424 42.6926 359.424L42.7168 359.411Z" fill="#826760"/>
<path d="M55.072 154.471C94.231 186.858 96.869 353.396 96.869 353.396L59.1137 356.095L38.2152 214.49L40.9137 354.074L7.20018 350.697C7.20018 350.697 -14.739 190.659 17.9822 153.805C24.1417 146.87 47.9202 148.564 55.0599 154.483L55.072 154.471Z" fill="#E6233C"/>
<path d="M79.0078 121.018C78.5117 125.205 69.6053 132.177 65.5272 131.136C63.0828 130.507 59.4646 123.039 59.4646 123.039C59.4646 123.039 58.3634 149.254 56.0884 154.737C35.8675 165.109 18.3331 154.059 18.3331 154.059L14.9569 125.738C14.9569 125.738 19.0108 98.5183 27.7719 98.7604C31.6927 98.8693 38.0094 105.453 41.9302 105.502C45.2459 105.55 50.7518 99.8618 54.0675 100.104C62.1873 100.697 79.9638 112.921 79.0078 121.006V121.018Z" fill="#76BB63"/>
<path d="M62.744 58.7481C62.0664 61.3018 52.8091 63.081 51.962 65.6105C47.2789 79.5411 37.719 102.658 54.6605 122.688C58.5813 127.324 38.8565 121.865 31.4023 122.325C22.6048 122.858 11.0967 125.605 6.78873 120.002C-3.836 106.18 18.9261 57.2836 18.9261 57.2836C18.9261 57.2836 25.6664 46.2578 49.9411 49.9371C54.2612 50.5907 63.5911 55.6134 62.7561 58.7602L62.744 58.7481Z" fill="black"/>
</g>
<defs>
<clipPath id="clip0_1305_5362">
<rect width="353" height="367" fill="white"/>
</clipPath>
</defs>
</svg>
