<svg width="24" height="24" viewBox="0 0 24 24" fill="none" xmlns="http://www.w3.org/2000/svg">
<path d="M7.5 3V6.75C7.5 7.34674 7.73705 7.91903 8.15901 8.34099C8.58097 8.76295 9.15326 9 9.75 9H12.75C13.3467 9 13.919 8.76295 14.341 8.34099C14.7629 7.91903 15 7.34674 15 6.75V3H15.5685C16.3641 3.00017 17.127 3.31635 17.6895 3.879L20.121 6.3105C20.6836 6.87298 20.9998 7.63592 21 8.4315V18C21 18.7956 20.6839 19.5587 20.1213 20.1213C19.5587 20.6839 18.7956 21 18 21V14.25C18 13.6533 17.7629 13.081 17.341 12.659C16.919 12.2371 16.3467 12 15.75 12H8.25C7.0095 12 6 13.0035 6 14.247V21C5.20435 21 4.44129 20.6839 3.87868 20.1213C3.31607 19.5587 3 18.7956 3 18V6C3 5.20435 3.31607 4.44129 3.87868 3.87868C4.44129 3.31607 5.20435 3 6 3H7.5ZM9 3V6.75C9 6.94891 9.07902 7.13968 9.21967 7.28033C9.36032 7.42098 9.55109 7.5 9.75 7.5H12.75C12.9489 7.5 13.1397 7.42098 13.2803 7.28033C13.421 7.13968 13.5 6.94891 13.5 6.75V3H9ZM7.5 21H16.5V14.25C16.5 14.0511 16.421 13.8603 16.2803 13.7197C16.1397 13.579 15.9489 13.5 15.75 13.5H8.25C7.8345 13.5 7.5 13.8345 7.5 14.247V21Z" fill="#FDFDFD"/>
</svg>
