<svg width="26" height="26" viewBox="0 0 26 26" fill="none" xmlns="http://www.w3.org/2000/svg">
<path d="M10.7667 2.756C11.3347 0.414667 14.6653 0.414667 15.2333 2.756C15.3186 3.10773 15.4856 3.43437 15.7209 3.70933C15.9563 3.98429 16.2532 4.19981 16.5875 4.33833C16.9219 4.47685 17.2842 4.53447 17.645 4.50649C18.0059 4.47852 18.355 4.36574 18.664 4.17733C20.7213 2.924 23.0773 5.27867 21.824 7.33733C21.6359 7.64621 21.5233 7.99512 21.4954 8.3557C21.4674 8.71628 21.525 9.07836 21.6634 9.41251C21.8017 9.74665 22.017 10.0434 22.2916 10.2787C22.5663 10.514 22.8926 10.6812 23.244 10.7667C25.5853 11.3347 25.5853 14.6653 23.244 15.2333C22.8923 15.3186 22.5656 15.4856 22.2907 15.7209C22.0157 15.9563 21.8002 16.2532 21.6617 16.5875C21.5232 16.9219 21.4655 17.2842 21.4935 17.645C21.5215 18.0059 21.6343 18.355 21.8227 18.664C23.076 20.7213 20.7213 23.0773 18.6627 21.824C18.3538 21.6359 18.0049 21.5233 17.6443 21.4954C17.2837 21.4674 16.9216 21.525 16.5875 21.6634C16.2533 21.8017 15.9566 22.017 15.7213 22.2916C15.486 22.5663 15.3188 22.8926 15.2333 23.244C14.6653 25.5853 11.3347 25.5853 10.7667 23.244C10.6814 22.8923 10.5144 22.5656 10.2791 22.2907C10.0437 22.0157 9.74682 21.8002 9.41246 21.6617C9.07811 21.5232 8.71578 21.4655 8.35495 21.4935C7.99413 21.5215 7.645 21.6343 7.336 21.8227C5.27867 23.076 2.92267 20.7213 4.176 18.6627C4.36414 18.3538 4.47673 18.0049 4.50465 17.6443C4.53256 17.2837 4.47499 16.9216 4.33663 16.5875C4.19827 16.2533 3.98301 15.9566 3.70836 15.7213C3.43371 15.486 3.10742 15.3188 2.756 15.2333C0.414667 14.6653 0.414667 11.3347 2.756 10.7667C3.10773 10.6814 3.43437 10.5144 3.70933 10.2791C3.98429 10.0437 4.19981 9.74682 4.33833 9.41246C4.47685 9.07811 4.53447 8.71578 4.50649 8.35495C4.47852 7.99413 4.36574 7.645 4.17733 7.336C2.924 5.27867 5.27867 2.92267 7.33733 4.176C8.67067 4.98667 10.3987 4.26933 10.7667 2.756Z" stroke="black" stroke-width="2" stroke-linecap="round" stroke-linejoin="round"/>
<path d="M9 13C9 14.0609 9.42143 15.0783 10.1716 15.8284C10.9217 16.5786 11.9391 17 13 17C14.0609 17 15.0783 16.5786 15.8284 15.8284C16.5786 15.0783 17 14.0609 17 13C17 11.9391 16.5786 10.9217 15.8284 10.1716C15.0783 9.42143 14.0609 9 13 9C11.9391 9 10.9217 9.42143 10.1716 10.1716C9.42143 10.9217 9 11.9391 9 13Z" stroke="black" stroke-width="2" stroke-linecap="round" stroke-linejoin="round"/>
</svg>
