<svg width="16" height="16" viewBox="0 0 16 16" fill="none" xmlns="http://www.w3.org/2000/svg">
<g id="octicon:arrow-switch-16">
<path id="Vector" d="M5.22 14.7801C5.36217 14.9126 5.55022 14.9847 5.74452 14.9813C5.93882 14.9778 6.12421 14.8991 6.26162 14.7617C6.39903 14.6243 6.47775 14.4389 6.48117 14.2446C6.4846 14.0503 6.41248 13.8623 6.28 13.7201L4.56 12.0001H13.25C13.4489 12.0001 13.6397 11.9211 13.7803 11.7804C13.921 11.6398 14 11.449 14 11.2501C14 11.0512 13.921 10.8604 13.7803 10.7198C13.6397 10.5791 13.4489 10.5001 13.25 10.5001H4.56L6.28 8.78009C6.41248 8.63792 6.4846 8.44987 6.48117 8.25557C6.47775 8.06127 6.39903 7.87588 6.26162 7.73847C6.12421 7.60106 5.93882 7.52234 5.74452 7.51892C5.55022 7.51549 5.36217 7.58761 5.22 7.72009L2.22 10.7201C2.07955 10.8607 2.00066 11.0513 2.00066 11.2501C2.00066 11.4488 2.07955 11.6395 2.22 11.7801L5.22 14.7801ZM10.78 8.28009C10.7113 8.35378 10.6285 8.41288 10.5365 8.45387C10.4445 8.49486 10.3452 8.51691 10.2445 8.51868C10.1438 8.52046 10.0438 8.50193 9.9504 8.46421C9.85701 8.42649 9.77218 8.37035 9.70096 8.29913C9.62974 8.22791 9.5736 8.14308 9.53588 8.04969C9.49816 7.9563 9.47963 7.85627 9.48141 7.75557C9.48318 7.65487 9.50523 7.55555 9.54622 7.46355C9.58721 7.37155 9.64631 7.28875 9.72 7.22009L11.44 5.50009H2.75C2.55109 5.50009 2.36032 5.42107 2.21967 5.28042C2.07902 5.13977 2 4.949 2 4.75009C2 4.55118 2.07902 4.36041 2.21967 4.21976C2.36032 4.07911 2.55109 4.00009 2.75 4.00009H11.44L9.72 2.28009C9.58752 2.13792 9.5154 1.94987 9.51882 1.75557C9.52225 1.56127 9.60097 1.37588 9.73838 1.23847C9.87579 1.10106 10.0612 1.02234 10.2555 1.01892C10.4498 1.01549 10.6378 1.08761 10.78 1.22009L13.78 4.22009C13.9205 4.36072 13.9993 4.55134 13.9993 4.75009C13.9993 4.94884 13.9205 5.13947 13.78 5.28009L10.78 8.28009Z" fill="black"/>
</g>
</svg>
