<svg width="81" height="81" viewBox="0 0 81 81" fill="none" xmlns="http://www.w3.org/2000/svg">
<path d="M20.25 33.75H33.75" stroke="#0072FF" stroke-width="4" stroke-linecap="round" stroke-linejoin="round"/>
<path d="M70.3114 37.125H61.5296C55.5053 37.125 50.625 41.6576 50.625 47.25C50.625 52.8424 55.5086 57.375 61.5262 57.375H70.3114C70.5949 57.375 70.7333 57.375 70.8514 57.3682C72.6739 57.2569 74.1251 55.9103 74.2432 54.2194C74.25 54.1114 74.25 53.9797 74.25 53.7199V40.7801C74.25 40.5203 74.25 40.3886 74.2432 40.2806C74.1217 38.5898 72.6739 37.2431 70.8514 37.1317C70.7333 37.125 70.5949 37.125 70.3114 37.125Z" stroke="#0072FF" stroke-width="4"/>
<path d="M70.7569 37.125C70.4936 30.807 69.6499 26.9325 66.9195 24.2055C62.9674 20.25 56.6021 20.25 43.875 20.25H33.75C21.0229 20.25 14.6576 20.25 10.7055 24.2055C6.75 28.1576 6.75 34.5229 6.75 47.25C6.75 59.9771 6.75 66.3424 10.7055 70.2945C14.6576 74.25 21.0229 74.25 33.75 74.25H43.875C56.6021 74.25 62.9674 74.25 66.9195 70.2945C69.6499 67.5675 70.497 63.693 70.7569 57.375" stroke="#0072FF" stroke-width="4"/>
<path d="M20.25 20.25L32.8556 11.8901C34.6284 10.737 36.6977 10.1232 38.8125 10.1232C40.9273 10.1232 42.9966 10.737 44.7694 11.8901L57.375 20.25" stroke="#0072FF" stroke-width="4" stroke-linecap="round"/>
<path d="M60.7196 47.25H60.7534" stroke="#0072FF" stroke-width="4" stroke-linecap="round" stroke-linejoin="round"/>
</svg>
