<svg width="442" height="328" viewBox="0 0 442 328" fill="none" xmlns="http://www.w3.org/2000/svg">
<path d="M161.991 44.6196L390.069 43.8408V64.8688H369.445V74.604L355.819 74.2146V65.6476H343.361V73.0464H315.73V64.8688H162.38L161.991 44.6196Z" fill="#FFCC07"/>
<path d="M109.054 110.57C139.58 110.57 164.327 85.8181 164.327 55.285C164.327 24.7519 139.58 0 109.054 0C78.5271 0 53.7806 24.7519 53.7806 55.285C53.7806 85.8181 78.5271 110.57 109.054 110.57Z" fill="#FFCC07"/>
<path d="M83.7584 67.3571C90.4239 67.3571 95.8274 61.9525 95.8274 55.2855C95.8274 48.6185 90.4239 43.2139 83.7584 43.2139C77.0929 43.2139 71.6894 48.6185 71.6894 55.2855C71.6894 61.9525 77.0929 67.3571 83.7584 67.3571Z" fill="#FEFEFE"/>
<path d="M438.788 48.5139C438.788 60.1204 434.008 69.531 428.103 69.531C422.199 69.531 417.419 60.1204 417.419 48.5139C417.419 36.9074 422.209 27.7455 428.103 27.4967C439.934 26.3501 438.788 36.9074 438.788 48.5139Z" fill="#B4B4B4"/>
<path d="M427.076 65.8642L422.718 98.9422H433.511L429.142 65.1719L427.076 65.8642Z" fill="#B4B4B4"/>
<path d="M431.326 69.5305C437.227 69.5305 442.011 60.1207 442.011 48.5133C442.011 36.9058 437.227 27.4961 431.326 27.4961C425.425 27.4961 420.641 36.9058 420.641 48.5133C420.641 60.1207 425.425 69.5305 431.326 69.5305Z" fill="#4E4D4D"/>
<path d="M430.288 65.8632L425.93 98.9412H436.722L432.353 65.1709L430.288 65.8632Z" fill="#4E4D4D"/>
<path d="M44.5991 93.4033L45.5615 83.084C45.5615 83.084 52.8938 83.6249 54.5917 82.1213C63.8381 73.9546 54.2672 55.6741 54.2672 55.6741L38.4672 47.291L36.2502 55.9986C34.693 62.1101 29.2857 66.4477 22.9808 66.6424L23.1322 72.0941C23.2404 76.0314 24.9274 79.7633 27.8149 82.4458V93.4142H44.5882L44.5991 93.4033Z" fill="#F49F75"/>
<path d="M21.1748 71.0563C21.1748 71.0563 44.426 70.2991 48.5572 66.9242C53.1966 63.1491 52.6234 47.9839 56.8303 39.882C59.1554 35.4038 64.3788 30.5579 62.7242 27.5724C61.4697 25.3225 57.0141 23.8406 55.0891 25.5497C53.1642 27.2587 48.0273 34.0301 48.0273 34.0301C48.0273 34.0301 46.7295 53.944 42.4578 57.1458C39.0404 59.7094 21.0342 59.0495 21.0342 59.0495L21.164 71.0454L21.1748 71.0563Z" fill="#F49F75"/>
<path d="M59.6096 116.454C59.6096 116.454 74.5877 122.804 79.9085 123.204C85.8673 123.647 98.3148 121.279 106.934 118.282C111.692 116.627 118.83 116.681 119.663 113.382C120.301 110.884 118.073 106.752 115.499 106.676C113.055 106.6 105.009 110.894 105.009 110.894C105.009 110.894 89.1116 114.118 83.8125 113.512C79.5624 113.025 67.753 107.66 67.753 107.66L59.6096 116.476V116.454Z" fill="#F49F75"/>
<path d="M82.0172 319.855C82.0172 319.855 86.581 321.088 87.2947 322.364C88.5059 324.571 86.7324 325.945 85.9105 326.431C85.6834 326.572 85.4238 326.637 85.1534 326.637H67.3636C66.174 326.637 65.0709 325.988 64.4977 324.95L60.4098 317.594L60.9073 326.637H57.8901L57.8468 310.076C57.8468 309.568 58.5065 309.362 58.7985 309.784L65.9036 309.481C68.445 312.694 81.9956 319.866 81.9956 319.866L82.0172 319.855Z" fill="#826760"/>
<path d="M38.1752 321.218C38.1752 321.218 42.7389 322.451 43.4527 323.728C44.6639 325.934 42.8903 327.308 42.0684 327.795C41.8413 327.935 41.5818 328 41.3114 328H23.5215C22.3319 328 21.2289 327.351 20.6557 326.313L16.5678 318.957L17.0653 328H14.048L14.0048 311.44C14.0048 310.931 14.6644 310.726 14.9564 311.148L22.0616 310.845C24.603 314.057 38.1536 321.229 38.1536 321.229L38.1752 321.218Z" fill="#826760"/>
<path d="M49.2168 138.056C84.2126 167.002 86.5702 315.842 86.5702 315.842L52.8289 318.254L34.1522 191.697L36.5639 316.448L6.43462 313.43C6.43462 313.43 -13.1721 170.399 16.0704 137.461C21.5749 131.263 42.8255 132.777 49.206 138.067L49.2168 138.056Z" fill="#E6233C"/>
<path d="M70.608 108.158C70.1646 111.901 62.2051 118.131 58.5606 117.201C56.3761 116.639 53.1425 109.965 53.1425 109.965C53.1425 109.965 52.1584 133.394 50.1253 138.294C32.0542 147.564 16.384 137.688 16.384 137.688L13.3668 112.377C13.3668 112.377 16.9896 88.0497 24.8193 88.2661C28.3232 88.3634 33.9684 94.2478 37.4723 94.2911C40.4355 94.3343 45.3561 89.2504 48.3193 89.4668C55.5758 89.9968 71.4623 100.922 70.608 108.147V108.158Z" fill="#76BB63"/>
<path d="M56.0733 52.5054C55.4676 54.7877 47.1945 56.3778 46.4375 58.6385C42.2523 71.0887 33.7088 91.749 48.8492 109.651C52.3531 113.794 34.7254 108.915 28.0637 109.326C20.2015 109.802 9.91691 112.258 6.06694 107.25C-3.4282 94.8967 16.9139 51.1965 16.9139 51.1965C16.9139 51.1965 22.9376 41.3423 44.6315 44.6307C48.4923 45.2148 56.8303 49.7038 56.0841 52.5162L56.0733 52.5054Z" fill="black"/>
</svg>
