<svg xmlns="http://www.w3.org/2000/svg" width="325" height="133" fill="none"><path fill="#FDFDFD" d="M0 0h325v133H0z"/><path fill="#0072FF" d="M129.961 79.129a14.259 14.259 0 0 1-4.375 2.578 14.32 14.32 0 0 1-5.02.899 14 14 0 0 1-3.847-.528 14.69 14.69 0 0 1-3.457-1.445 15.018 15.018 0 0 1-2.93-2.285 15.055 15.055 0 0 1-2.285-2.93 15.353 15.353 0 0 1-1.465-3.457 14.49 14.49 0 0 1-.508-3.848c0-1.328.169-2.61.508-3.847.352-1.237.84-2.39 1.465-3.457.638-1.081 1.4-2.064 2.285-2.95a14.441 14.441 0 0 1 2.93-2.265 14.214 14.214 0 0 1 3.457-1.465 14 14 0 0 1 3.847-.527c1.732 0 3.405.299 5.02.898a13.76 13.76 0 0 1 4.375 2.578l-2.969 4.883a8.273 8.273 0 0 0-2.91-2.031 8.806 8.806 0 0 0-3.516-.723 8.639 8.639 0 0 0-3.476.703 9.055 9.055 0 0 0-2.832 1.914 8.766 8.766 0 0 0-1.914 2.832 8.59 8.59 0 0 0-.703 3.457 8.59 8.59 0 0 0 .703 3.457 9.057 9.057 0 0 0 4.746 4.727 8.64 8.64 0 0 0 3.476.703 9.018 9.018 0 0 0 3.516-.703 8.498 8.498 0 0 0 2.91-2.05l2.969 4.882Zm32.283-11.016c0 1.328-.176 2.611-.528 3.848a14.683 14.683 0 0 1-1.445 3.457 14.442 14.442 0 0 1-2.266 2.93 15.042 15.042 0 0 1-2.929 2.285 14.263 14.263 0 0 1-3.457 1.445c-1.237.352-2.52.528-3.848.528-1.328 0-2.611-.176-3.848-.528a14.708 14.708 0 0 1-3.457-1.445 15.042 15.042 0 0 1-2.929-2.285 15.016 15.016 0 0 1-2.285-2.93 15.307 15.307 0 0 1-1.465-3.457 14.49 14.49 0 0 1-.508-3.848c0-1.328.169-2.61.508-3.847a14.82 14.82 0 0 1 1.465-3.457 15.013 15.013 0 0 1 2.285-2.93 14.463 14.463 0 0 1 2.929-2.266 14.708 14.708 0 0 1 3.457-1.445 14.007 14.007 0 0 1 3.848-.527c1.328 0 2.611.175 3.848.527 1.237.339 2.389.82 3.457 1.445a14.463 14.463 0 0 1 2.929 2.266 14.238 14.238 0 0 1 3.711 6.387 13.99 13.99 0 0 1 .528 3.847Zm-5.567 0a8.59 8.59 0 0 0-.703-3.457 8.782 8.782 0 0 0-1.914-2.832 8.766 8.766 0 0 0-2.832-1.914 8.593 8.593 0 0 0-3.457-.703 8.636 8.636 0 0 0-3.476.703 9.071 9.071 0 0 0-2.833 1.914 8.782 8.782 0 0 0-1.914 2.832 8.607 8.607 0 0 0-.703 3.457c0 1.224.235 2.377.703 3.457a9.137 9.137 0 0 0 1.914 2.813 9.073 9.073 0 0 0 2.833 1.914 8.637 8.637 0 0 0 3.476.703 8.595 8.595 0 0 0 3.457-.703 8.768 8.768 0 0 0 2.832-1.914 9.137 9.137 0 0 0 1.914-2.813 8.59 8.59 0 0 0 .703-3.457Zm34.1-.117c0 1.29-.17 2.533-.508 3.73a13.777 13.777 0 0 1-1.407 3.34 14.794 14.794 0 0 1-2.187 2.832 14.034 14.034 0 0 1-2.832 2.188 14.252 14.252 0 0 1-3.359 1.426 13.948 13.948 0 0 1-3.711.488h-8.438V53.992h8.438c1.289 0 2.526.17 3.711.508a13.685 13.685 0 0 1 6.191 3.613 14.03 14.03 0 0 1 2.187 2.832 13.356 13.356 0 0 1 1.407 3.34c.338 1.185.508 2.422.508 3.711Zm-5.606 0a8.068 8.068 0 0 0-.664-3.262 8.13 8.13 0 0 0-1.797-2.656 8.318 8.318 0 0 0-2.676-1.816 8.067 8.067 0 0 0-3.261-.664h-2.793v16.796h2.793a8.277 8.277 0 0 0 3.261-.644 8.478 8.478 0 0 0 2.676-1.797 8.352 8.352 0 0 0 1.797-2.676 8.206 8.206 0 0 0 .664-3.28ZM209.505 82h-5.586v-8.77a11.027 11.027 0 0 1-3.418-1.503 11.392 11.392 0 0 1-2.656-2.461 11.621 11.621 0 0 1-1.739-3.184 11.271 11.271 0 0 1-.605-3.691v-8.399h5.605v8.399c0 .768.143 1.497.43 2.187.299.677.703 1.27 1.211 1.778.508.507 1.1.91 1.777 1.21.69.287 1.419.43 2.188.43.768 0 1.491-.143 2.168-.43.69-.3 1.289-.703 1.797-1.21.507-.508.905-1.1 1.191-1.778.299-.69.449-1.42.449-2.187v-8.399h5.586v8.399c0 1.289-.208 2.52-.625 3.691a11.23 11.23 0 0 1-1.719 3.184c-.742.95-1.627 1.77-2.656 2.46a10.797 10.797 0 0 1-3.398 1.505V82Z"/></svg>